<svg width="46" height="61" viewBox="0 0 46 61" fill="none" xmlns="http://www.w3.org/2000/svg">
<path d="M16.846 60.1739C12.905 58.3098 7.9292 54.7082 4.94408 51.558C3.80471 50.3562 1.59935 47.7692 1.59935 47.6353C1.59935 47.5711 4.70923 47.5197 8.50898 47.5197H15.4186L17.3616 46.3583C18.4312 45.718 21.554 43.8557 24.3024 42.2191L29.3002 39.2432L29.3479 28.1082L29.3956 16.9713L31.001 16.9181C32.5661 16.8667 32.6064 16.8759 32.6119 17.2851C32.6138 17.5162 32.6119 20.1895 32.6064 23.2278C32.6009 26.2643 32.6486 28.8861 32.7128 29.0531C32.8174 29.3264 33.4632 29.3558 39.4151 29.3558H46V32.5427C46 37.9882 45.2037 40.7367 42.9837 42.9585C41.681 44.2612 40.338 44.9712 38.0189 45.5822C34.1017 46.6152 32.1514 47.9949 29.2837 51.7561C27.1407 54.5669 26.2454 55.554 24.6473 56.8585C23.0841 58.1337 21.6769 59.051 19.9963 59.8858C18.1835 60.7867 18.1487 60.7904 16.846 60.1739ZM1.23241 42.8246C1.23241 40.8743 2.67634 36.37 4.22486 33.484L5.0138 32.0162L10.3235 31.9244L15.6351 31.8327L17.6533 30.6236C18.7633 29.9594 21.4439 28.3504 23.6107 27.0459C25.7775 25.7432 27.6141 24.6497 27.693 24.6167C27.7719 24.5818 27.8361 27.0679 27.8361 30.1374C27.8361 35.2251 27.8067 35.7462 27.515 35.9994C27.3389 36.1535 25.5427 37.2525 23.5245 38.4414C21.5063 39.6303 18.8385 41.21 17.5983 41.9513L15.3397 43.2998H8.28697H1.23241V42.8246ZM7.21732 27.2C7.5439 25.8056 7.53289 22.5801 7.1953 21.1472C7.04669 20.516 6.6614 19.4427 6.33665 18.762C6.01373 18.0795 5.69082 17.3896 5.61743 17.23C5.5 16.9695 5.68715 16.9475 7.28154 17.0227C9.33094 17.1218 10.5455 16.8979 12.0574 16.1402C14.1049 15.1146 15.8663 13.0762 16.6717 10.8048C17.0056 9.86171 17.0864 9.25442 17.079 7.7059C17.068 4.78866 16.3066 3.03649 14.1912 1.05864L13.0665 0.00550399L29.5332 0.00366956L46 0V7.70406V15.4081L36.9639 15.4558L27.9278 15.5035L27.8361 18.1584L27.7444 20.8151L25.084 22.393C23.6199 23.2626 20.9779 24.8332 19.2128 25.8845C17.4478 26.9358 15.7654 27.899 15.4773 28.0256C15.1085 28.1852 13.7545 28.255 10.9602 28.255H6.96779L7.21732 27.2ZM6.78065 15.5751C4.33678 15.1696 2.12959 13.5679 0.937014 11.3368C0.226971 10.0048 0 10.0085 0 7.90772C0 5.91336 0.256328 5.71154 0.812253 4.53731C2.68002 0.592621 7.31456 -1.05497 11.2739 0.818293C14.0572 2.13563 15.7268 4.79417 15.7268 7.90772C15.7268 11.2157 13.2775 14.4229 10.1015 15.2742C8.54383 15.6925 7.86315 15.7549 6.78065 15.5751ZM11.5069 12.4762V11.7423H12.2408C12.9564 11.7423 12.9747 11.7276 12.9747 11.1002C12.9747 10.4727 12.9564 10.458 12.2408 10.458H11.5069V9.72411C11.5069 9.00856 11.4923 8.99021 10.8648 8.99021C10.2373 8.99021 10.2226 9.00856 10.2226 9.72411C10.2226 10.4397 10.2079 10.458 9.58046 10.458C8.96949 10.458 8.9383 10.4892 8.9383 11.1002C8.9383 11.7111 8.96949 11.7423 9.58046 11.7423C10.2079 11.7423 10.2226 11.7607 10.2226 12.4762C10.2226 13.1918 10.2373 13.2101 10.8648 13.2101C11.4923 13.2101 11.5069 13.1918 11.5069 12.4762ZM9.51808 8.38108L10.0832 7.81782L9.42084 7.21052C8.62273 6.47846 7.55308 6.38856 6.59351 6.97384C5.76604 7.47839 5.67614 7.82882 6.2284 8.38292C7.12191 9.2746 8.62456 9.2746 9.51808 8.38108ZM7.32373 8.4031C6.9788 8.05817 7.06504 7.7059 7.49253 7.7059C7.78976 7.7059 7.85764 7.61966 7.78425 7.33895C7.71637 7.07842 7.77875 6.972 8.00075 6.972C8.42641 6.972 8.75483 7.33161 8.75483 7.79763C8.75483 8.00863 8.65575 8.28201 8.53466 8.4031C8.41357 8.52419 8.14019 8.62327 7.9292 8.62327C7.7182 8.62327 7.44483 8.52419 7.32373 8.4031Z" fill="#F7F4D5"/>
<ellipse cx="7.81553" cy="7.81553" rx="7.81553" ry="7.81553" fill="#F7F4D5"/>
<rect x="29.38" y="13.9404" width="3.22191" height="4.72122" fill="#F7F4D5"/>
<rect x="27.3065" y="14.2593" width="3.66852" height="26.7961" fill="#F7F4D5"/>
</svg>
