<svg width="368" height="306" viewBox="0 0 368 306" fill="none" xmlns="http://www.w3.org/2000/svg">
<ellipse cx="171.12" cy="151.984" rx="151.984" ry="151.984" fill="url(#paint0_linear_61_1341)"/>
<path d="M29.6164 286.465H44.4346L44.4346 223.687H29.6164L29.6164 286.465Z" fill="#EBEBEB"/>
<path d="M37.1727 236.779H41.677V228.082H37.1727V236.779Z" fill="white"/>
<path d="M39.2974 236.779C39.3317 236.779 39.3563 234.813 39.3563 232.433C39.3563 230.054 39.3563 228.082 39.2974 228.082C39.2385 228.082 39.2385 230.049 39.2385 232.433C39.2385 234.818 39.2532 236.779 39.2974 236.779Z" fill="#E0E0E0"/>
<path d="M37.1729 231.106C37.1729 231.135 38.1542 231.165 39.425 231.165C40.6958 231.165 41.6772 231.135 41.6772 231.106C40.9282 231.043 40.1763 231.021 39.425 231.042C38.6737 231.021 37.9218 231.042 37.1729 231.106Z" fill="#E0E0E0"/>
<path d="M37.1482 234.213C37.9039 234.273 38.6622 234.293 39.42 234.272C40.1761 234.293 40.9328 234.273 41.6869 234.213C40.9328 234.153 40.1761 234.133 39.42 234.154C38.6622 234.133 37.9039 234.153 37.1482 234.213Z" fill="#E0E0E0"/>
<path d="M37.1727 248.136H41.677V239.439H37.1727V248.136Z" fill="white"/>
<path d="M39.2974 248.136C39.3317 248.136 39.3563 246.17 39.3563 243.79C39.3563 241.411 39.3563 239.439 39.2974 239.439C39.2385 239.439 39.2385 241.406 39.2385 243.79C39.2385 246.175 39.2532 248.136 39.2974 248.136Z" fill="#E0E0E0"/>
<path d="M37.1729 242.463C37.922 242.523 38.6738 242.543 39.425 242.522C40.1762 242.543 40.928 242.523 41.6772 242.463C40.9282 242.4 40.1763 242.378 39.425 242.399C38.6737 242.378 37.9218 242.399 37.1729 242.463Z" fill="#E0E0E0"/>
<path d="M37.1482 245.57C37.9037 245.633 38.6621 245.655 39.42 245.634C40.1762 245.655 40.933 245.633 41.6869 245.57C40.9328 245.51 40.1761 245.49 39.42 245.511C38.6622 245.49 37.9039 245.51 37.1482 245.57Z" fill="#E0E0E0"/>
<path d="M37.1727 259.494H41.677V250.796H37.1727V259.494Z" fill="white"/>
<path d="M39.2975 259.494C39.3318 259.494 39.3564 257.527 39.3564 255.147C39.3564 252.768 39.3564 250.796 39.2975 250.796C39.2386 250.796 39.2533 252.743 39.2533 255.152C39.2533 257.561 39.2533 259.494 39.2975 259.494Z" fill="#E0E0E0"/>
<path d="M37.1729 253.82C37.922 253.88 38.6738 253.9 39.425 253.879C40.1762 253.9 40.928 253.88 41.6772 253.82C40.928 253.76 40.1762 253.74 39.425 253.761C38.6738 253.74 37.922 253.76 37.1729 253.82Z" fill="#E0E0E0"/>
<path d="M37.1482 256.927C37.9037 256.99 38.6621 257.012 39.42 256.991C40.1762 257.012 40.933 256.99 41.6869 256.927C41.6869 256.898 40.6712 256.868 39.42 256.868C38.1688 256.868 37.1482 256.898 37.1482 256.927Z" fill="#E0E0E0"/>
<path d="M37.1727 270.851H41.677V262.153H37.1727V270.851Z" fill="white"/>
<path d="M39.2975 270.851C39.3318 270.851 39.3564 268.884 39.3564 266.504C39.3564 264.125 39.3564 262.158 39.2975 262.158C39.2386 262.158 39.2533 264.1 39.2533 266.504C39.2533 268.909 39.2533 270.851 39.2975 270.851Z" fill="#E0E0E0"/>
<path d="M37.1729 265.177C37.922 265.237 38.6738 265.257 39.425 265.236C40.1762 265.257 40.928 265.237 41.6772 265.177C40.928 265.117 40.1762 265.097 39.425 265.118C38.6738 265.097 37.922 265.117 37.1729 265.177Z" fill="#E0E0E0"/>
<path d="M37.1482 268.284C37.9037 268.348 38.6621 268.369 39.42 268.348C40.1762 268.369 40.933 268.347 41.6869 268.284C41.6869 268.255 40.6712 268.225 39.42 268.225C38.1688 268.225 37.1482 268.255 37.1482 268.284Z" fill="#E0E0E0"/>
<path d="M23.3213 286.465H34.116L34.116 223.687H23.3213L23.3213 286.465Z" fill="#E0E0E0"/>
<path d="M26.2554 236.779H30.7598V228.082H26.2554V236.779Z" fill="white"/>
<path d="M28.3851 236.779C28.4194 236.779 28.4439 234.813 28.4439 232.433C28.4439 230.054 28.4439 228.082 28.3851 228.082C28.3262 228.082 28.3262 230.049 28.3262 232.433C28.3262 234.818 28.3507 236.779 28.3851 236.779Z" fill="#E0E0E0"/>
<path d="M26.2603 231.106C26.2603 231.135 27.2416 231.165 28.5124 231.165C29.7832 231.165 30.7646 231.135 30.7646 231.106C30.0156 231.043 29.2637 231.021 28.5124 231.042C27.7611 231.021 27.0092 231.042 26.2603 231.106Z" fill="#E0E0E0"/>
<path d="M26.2358 234.213C26.9915 234.273 27.7499 234.293 28.5076 234.272C29.2638 234.293 30.0205 234.273 30.7745 234.213C30.0205 234.153 29.2638 234.133 28.5076 234.154C27.7499 234.133 26.9915 234.153 26.2358 234.213Z" fill="#E0E0E0"/>
<path d="M26.2554 248.23H30.7598V239.533H26.2554V248.23Z" fill="white"/>
<path d="M28.3851 248.23C28.4194 248.23 28.4439 246.263 28.4439 243.884C28.4439 241.504 28.4439 239.533 28.3851 239.533C28.3262 239.533 28.3262 241.499 28.3262 243.884C28.3262 246.268 28.3507 248.23 28.3851 248.23Z" fill="#E0E0E0"/>
<path d="M26.2603 242.556C26.2603 242.586 27.2416 242.615 28.5124 242.615C29.7832 242.615 30.7646 242.586 30.7646 242.556C30.0156 242.493 29.2637 242.472 28.5124 242.492C27.7611 242.472 27.0092 242.493 26.2603 242.556Z" fill="#E0E0E0"/>
<path d="M26.2358 245.663C26.9915 245.724 27.7499 245.743 28.5076 245.722C29.2638 245.743 30.0205 245.723 30.7745 245.663C30.0205 245.603 29.2638 245.584 28.5076 245.604C27.7499 245.584 26.9915 245.603 26.2358 245.663Z" fill="#E0E0E0"/>
<path d="M26.2554 259.68H30.7598V250.983H26.2554V259.68Z" fill="white"/>
<path d="M28.3851 259.68C28.4194 259.68 28.4439 257.714 28.4439 255.334C28.4439 252.955 28.4439 250.983 28.3851 250.983C28.3262 250.983 28.3262 252.95 28.3262 255.334C28.3262 257.719 28.3507 259.68 28.3851 259.68Z" fill="#E0E0E0"/>
<path d="M26.2603 254.007C27.0094 254.067 27.7612 254.087 28.5124 254.066C29.2636 254.086 30.0154 254.067 30.7646 254.007C30.0154 253.947 29.2636 253.927 28.5124 253.948C27.7612 253.927 27.0094 253.947 26.2603 254.007Z" fill="#E0E0E0"/>
<path d="M26.2358 257.119C26.9913 257.182 27.7498 257.204 28.5076 257.183C29.2639 257.203 30.0206 257.182 30.7745 257.119C30.0205 257.059 29.2638 257.039 28.5076 257.06C27.7499 257.039 26.9915 257.059 26.2358 257.119Z" fill="#E0E0E0"/>
<path d="M26.2554 271.131H30.7598V262.434H26.2554V271.131Z" fill="white"/>
<path d="M28.3851 271.131C28.4194 271.131 28.4439 269.164 28.4439 266.785C28.4439 264.405 28.4439 262.434 28.3851 262.434C28.3262 262.434 28.3262 264.4 28.3262 266.785C28.3262 269.169 28.3507 271.131 28.3851 271.131Z" fill="#E0E0E0"/>
<path d="M26.2603 265.477C27.0094 265.537 27.7612 265.557 28.5124 265.536C29.2636 265.557 30.0154 265.537 30.7646 265.477C30.0154 265.417 29.2636 265.397 28.5124 265.418C27.7612 265.397 27.0094 265.417 26.2603 265.477Z" fill="#E0E0E0"/>
<path d="M26.2358 268.564C26.9913 268.628 27.7498 268.649 28.5076 268.628C29.2639 268.649 30.0206 268.628 30.7745 268.564C30.7745 268.535 29.7588 268.505 28.5076 268.505C27.2564 268.505 26.2358 268.535 26.2358 268.564Z" fill="#E0E0E0"/>
<path d="M37.1727 282.208H41.677V273.51H37.1727V282.208Z" fill="white"/>
<path d="M39.2974 282.193C39.3317 282.193 39.3563 280.226 39.3563 277.847C39.3563 275.467 39.3563 273.501 39.2974 273.501C39.2385 273.501 39.2385 275.467 39.2385 277.847C39.2385 280.226 39.2532 282.193 39.2974 282.193Z" fill="#E0E0E0"/>
<path d="M37.1729 276.534C37.922 276.594 38.6738 276.614 39.425 276.593C40.1762 276.614 40.928 276.594 41.6772 276.534C40.928 276.474 40.1762 276.454 39.425 276.475C38.6738 276.454 37.922 276.474 37.1729 276.534Z" fill="#E0E0E0"/>
<path d="M37.1482 279.646C37.1482 279.676 38.1639 279.705 39.42 279.705C40.6761 279.705 41.6869 279.676 41.6869 279.646C40.933 279.583 40.1762 279.562 39.42 279.582C38.6621 279.562 37.9037 279.583 37.1482 279.646Z" fill="#E0E0E0"/>
<path d="M26.2554 282.586H30.7598V273.889H26.2554V282.586Z" fill="white"/>
<path d="M28.3851 282.581C28.4194 282.581 28.4439 280.615 28.4439 278.235C28.4439 275.856 28.4439 273.884 28.3851 273.884C28.3262 273.884 28.3262 275.851 28.3262 278.235C28.3262 280.62 28.3507 282.581 28.3851 282.581Z" fill="#E0E0E0"/>
<path d="M26.2603 276.908C27.0094 276.968 27.7612 276.988 28.5124 276.967C29.2636 276.987 30.0154 276.968 30.7646 276.908C30.0154 276.848 29.2636 276.828 28.5124 276.849C27.7612 276.828 27.0094 276.848 26.2603 276.908Z" fill="#E0E0E0"/>
<path d="M26.2358 280.015C26.9913 280.078 27.7498 280.1 28.5076 280.079C29.2639 280.1 30.0206 280.078 30.7745 280.015C30.7745 279.985 29.7588 279.956 28.5076 279.956C27.2564 279.956 26.2358 279.985 26.2358 280.015Z" fill="#E0E0E0"/>
<path d="M187.67 242.256H205.104V168.391H187.67V242.256Z" fill="#EBEBEB"/>
<path d="M196.551 183.799H201.85V173.568H196.551V183.799Z" fill="white"/>
<path d="M199.054 183.799C199.093 183.799 199.122 181.508 199.122 178.686C199.122 175.864 199.093 173.568 199.054 173.568C199.014 173.568 198.98 175.859 198.98 178.686C198.98 181.513 199.014 183.799 199.054 183.799Z" fill="#E0E0E0"/>
<path d="M196.551 177.123C198.316 177.221 200.085 177.221 201.85 177.123C200.085 177.031 198.316 177.031 196.551 177.123Z" fill="#E0E0E0"/>
<path d="M196.522 180.781C198.301 180.879 200.085 180.879 201.865 180.781C200.085 180.689 198.302 180.689 196.522 180.781Z" fill="#E0E0E0"/>
<path d="M196.551 197.162H201.85V186.931H196.551V197.162Z" fill="white"/>
<path d="M199.054 197.162C199.093 197.162 199.122 194.871 199.122 192.049C199.122 189.227 199.093 186.931 199.054 186.931C199.014 186.931 198.98 189.222 198.98 192.049C198.98 194.876 199.014 197.162 199.054 197.162Z" fill="#E0E0E0"/>
<path d="M196.551 190.486C198.316 190.584 200.085 190.584 201.85 190.486C200.085 190.394 198.316 190.394 196.551 190.486Z" fill="#E0E0E0"/>
<path d="M196.522 194.144C198.301 194.242 200.085 194.242 201.865 194.144C200.085 194.052 198.302 194.052 196.522 194.144Z" fill="#E0E0E0"/>
<path d="M196.551 210.525H201.85V200.294H196.551V210.525Z" fill="white"/>
<path d="M199.054 210.525C199.093 210.525 199.122 208.234 199.122 205.412C199.122 202.59 199.093 200.294 199.054 200.294C199.014 200.294 198.98 202.585 198.98 205.412C198.98 208.239 199.014 210.525 199.054 210.525Z" fill="#E0E0E0"/>
<path d="M196.551 203.849C198.316 203.941 200.085 203.941 201.85 203.849C200.085 203.757 198.316 203.757 196.551 203.849Z" fill="#E0E0E0"/>
<path d="M196.522 207.507C198.301 207.605 200.085 207.605 201.865 207.507C200.085 207.415 198.302 207.415 196.522 207.507Z" fill="#E0E0E0"/>
<path d="M196.551 223.888H201.85V213.657H196.551V223.888Z" fill="white"/>
<path d="M199.054 223.888C199.093 223.888 199.122 221.597 199.122 218.77C199.122 215.943 199.093 213.657 199.054 213.657C199.014 213.657 198.98 215.948 198.98 218.77C198.98 221.592 199.014 223.888 199.054 223.888Z" fill="#E0E0E0"/>
<path d="M196.551 217.212C198.316 217.304 200.085 217.304 201.85 217.212C200.085 217.12 198.316 217.12 196.551 217.212Z" fill="#E0E0E0"/>
<path d="M196.522 220.87C198.301 220.968 200.085 220.968 201.865 220.87C200.085 220.778 198.302 220.778 196.522 220.87Z" fill="#E0E0E0"/>
<path d="M180.256 242.256H192.955V168.391H180.256V242.256Z" fill="#E0E0E0"/>
<path d="M183.715 183.799H189.015V173.568H183.715V183.799Z" fill="white"/>
<path d="M186.213 183.799C186.252 183.799 186.281 181.508 186.281 178.686C186.281 175.864 186.252 173.568 186.213 173.568C186.173 173.568 186.144 175.859 186.144 178.686C186.144 181.513 186.173 183.799 186.213 183.799Z" fill="#E0E0E0"/>
<path d="M183.71 177.123C185.475 177.221 187.245 177.221 189.01 177.123C187.244 177.031 185.476 177.031 183.71 177.123Z" fill="#E0E0E0"/>
<path d="M183.686 180.781C185.464 180.879 187.246 180.879 189.024 180.781C187.246 180.689 185.464 180.689 183.686 180.781Z" fill="#E0E0E0"/>
<path d="M183.715 197.271H189.015V187.039H183.715V197.271Z" fill="white"/>
<path d="M186.213 197.271C186.252 197.271 186.281 194.98 186.281 192.157C186.281 189.335 186.252 187.044 186.213 187.044C186.173 187.044 186.144 189.33 186.144 192.157C186.144 194.984 186.173 197.271 186.213 197.271Z" fill="#E0E0E0"/>
<path d="M183.71 190.594C185.475 190.692 187.245 190.692 189.01 190.594C187.244 190.502 185.476 190.502 183.71 190.594Z" fill="#E0E0E0"/>
<path d="M183.686 194.257C185.464 194.349 187.246 194.349 189.024 194.257C187.246 194.158 185.464 194.158 183.686 194.257Z" fill="#E0E0E0"/>
<path d="M183.715 210.742H189.015V200.511H183.715V210.742Z" fill="white"/>
<path d="M186.213 210.742C186.252 210.742 186.281 208.456 186.281 205.629C186.281 202.802 186.252 200.516 186.213 200.516C186.173 200.516 186.144 202.802 186.144 205.629C186.144 208.456 186.173 210.742 186.213 210.742Z" fill="#E0E0E0"/>
<path d="M183.71 204.07C185.476 204.162 187.244 204.162 189.01 204.07C187.245 203.972 185.475 203.972 183.71 204.07Z" fill="#E0E0E0"/>
<path d="M183.686 207.728C185.464 207.82 187.246 207.82 189.024 207.728C187.246 207.63 185.464 207.63 183.686 207.728Z" fill="#E0E0E0"/>
<path d="M183.715 224.218H189.015V213.987H183.715V224.218Z" fill="white"/>
<path d="M186.213 224.218C186.252 224.218 186.281 221.927 186.281 219.1C186.281 216.273 186.252 213.987 186.213 213.987C186.173 213.987 186.144 216.278 186.144 219.1C186.144 221.922 186.173 224.218 186.213 224.218Z" fill="#E0E0E0"/>
<path d="M183.71 217.541C185.476 217.633 187.244 217.633 189.01 217.541C187.245 217.443 185.475 217.443 183.71 217.541Z" fill="#E0E0E0"/>
<path d="M183.686 221.199C185.464 221.291 187.246 221.291 189.024 221.199C187.246 221.107 185.464 221.107 183.686 221.199Z" fill="#E0E0E0"/>
<path d="M196.551 237.251H201.85V227.02H196.551V237.251Z" fill="white"/>
<path d="M199.054 237.251C199.093 237.251 199.122 234.96 199.122 232.133C199.122 229.306 199.093 227.02 199.054 227.02C199.014 227.02 198.98 229.311 198.98 232.133C198.98 234.955 199.014 237.251 199.054 237.251Z" fill="#E0E0E0"/>
<path d="M196.551 230.57C198.316 230.662 200.085 230.662 201.85 230.57C200.085 230.472 198.316 230.472 196.551 230.57Z" fill="#E0E0E0"/>
<path d="M196.522 234.233C198.302 234.324 200.085 234.324 201.865 234.233C200.085 234.141 198.302 234.141 196.522 234.233Z" fill="#E0E0E0"/>
<path d="M183.715 237.689H189.015V227.458H183.715V237.689Z" fill="white"/>
<path d="M186.213 237.689C186.252 237.689 186.281 235.398 186.281 232.576C186.281 229.754 186.252 227.458 186.213 227.458C186.173 227.458 186.144 229.749 186.144 232.576C186.144 235.403 186.173 237.689 186.213 237.689Z" fill="#E0E0E0"/>
<path d="M183.71 231.012C185.475 231.111 187.245 231.111 189.01 231.012C187.244 230.921 185.476 230.921 183.71 231.012Z" fill="#E0E0E0"/>
<path d="M183.686 234.67C185.464 234.768 187.246 234.768 189.024 234.67C187.246 234.578 185.464 234.578 183.686 234.67Z" fill="#E0E0E0"/>
<path d="M187.945 286.46H205.378V212.595H187.945V286.46Z" fill="#EBEBEB"/>
<path d="M196.831 228.008H202.13V217.777H196.831V228.008Z" fill="white"/>
<path d="M199.328 228.008C199.368 228.008 199.402 225.717 199.402 222.89C199.402 220.063 199.368 217.777 199.328 217.777C199.289 217.777 199.26 220.068 199.26 222.89C199.26 225.712 199.289 228.008 199.328 228.008Z" fill="#E0E0E0"/>
<path d="M196.831 221.332C198.596 221.424 200.365 221.424 202.13 221.332C200.365 221.233 198.596 221.233 196.831 221.332Z" fill="#E0E0E0"/>
<path d="M196.801 224.99C198.581 225.088 200.365 225.088 202.145 224.99C200.365 224.898 198.581 224.898 196.801 224.99Z" fill="#E0E0E0"/>
<path d="M196.831 241.371H202.13V231.14H196.831V241.371Z" fill="white"/>
<path d="M199.328 241.386C199.368 241.386 199.402 239.095 199.402 236.268C199.402 233.441 199.368 231.155 199.328 231.155C199.289 231.155 199.26 233.446 199.26 236.268C199.26 239.09 199.289 241.386 199.328 241.386Z" fill="#E0E0E0"/>
<path d="M196.831 234.695C198.596 234.787 200.365 234.787 202.13 234.695C200.365 234.597 198.596 234.597 196.831 234.695Z" fill="#E0E0E0"/>
<path d="M196.801 238.353C198.581 238.444 200.365 238.444 202.145 238.353C200.365 238.261 198.581 238.261 196.801 238.353Z" fill="#E0E0E0"/>
<path d="M196.831 254.734H202.13V244.503H196.831V254.734Z" fill="white"/>
<path d="M199.328 254.734C199.368 254.734 199.402 252.443 199.402 249.616C199.402 246.789 199.368 244.503 199.328 244.503C199.289 244.503 199.26 246.794 199.26 249.616C199.26 252.438 199.289 254.734 199.328 254.734Z" fill="#E0E0E0"/>
<path d="M196.831 248.058C198.596 248.15 200.365 248.15 202.13 248.058C200.365 247.96 198.596 247.96 196.831 248.058Z" fill="#E0E0E0"/>
<path d="M196.801 251.711C198.585 251.803 200.371 251.803 202.155 251.711C200.375 251.612 198.591 251.612 196.811 251.711H196.801Z" fill="#E0E0E0"/>
<path d="M196.831 268.093H202.13V257.861H196.831V268.093Z" fill="white"/>
<path d="M199.328 268.097C199.368 268.097 199.402 265.806 199.402 262.979C199.402 260.152 199.368 257.866 199.328 257.866C199.289 257.866 199.26 260.157 199.26 262.979C199.26 265.801 199.289 268.097 199.328 268.097Z" fill="#E0E0E0"/>
<path d="M196.831 261.421C198.596 261.513 200.365 261.513 202.13 261.421C200.365 261.322 198.596 261.322 196.831 261.421Z" fill="#E0E0E0"/>
<path d="M196.801 265.079C198.581 265.17 200.365 265.17 202.145 265.079C200.365 264.98 198.581 264.98 196.801 265.079Z" fill="#E0E0E0"/>
<path d="M180.531 286.46H193.234V212.595H180.531V286.46Z" fill="#E0E0E0"/>
<path d="M183.99 228.008H189.289V217.777H183.99V228.008Z" fill="white"/>
<path d="M186.493 228.008C186.532 228.008 186.561 225.717 186.561 222.89C186.561 220.063 186.532 217.777 186.493 217.777C186.453 217.777 186.419 220.068 186.419 222.89C186.419 225.712 186.453 228.008 186.493 228.008Z" fill="#E0E0E0"/>
<path d="M184 221.332C185.765 221.424 187.534 221.424 189.299 221.332C187.534 221.233 185.765 221.233 184 221.332Z" fill="#E0E0E0"/>
<path d="M183.966 224.99C185.744 225.088 187.526 225.088 189.304 224.99C187.526 224.898 185.744 224.898 183.966 224.99Z" fill="#E0E0E0"/>
<path d="M183.99 241.48H189.289V231.248H183.99V241.48Z" fill="white"/>
<path d="M186.493 241.48C186.532 241.48 186.561 239.189 186.561 236.366C186.561 233.544 186.532 231.248 186.493 231.248C186.453 231.248 186.419 233.539 186.419 236.366C186.419 239.193 186.453 241.48 186.493 241.48Z" fill="#E0E0E0"/>
<path d="M184 234.803C185.765 234.901 187.534 234.901 189.299 234.803C187.534 234.711 185.765 234.711 184 234.803Z" fill="#E0E0E0"/>
<path d="M183.966 238.461C185.744 238.559 187.526 238.559 189.304 238.461C187.526 238.369 185.744 238.369 183.966 238.461Z" fill="#E0E0E0"/>
<path d="M183.99 254.956H189.289V244.724H183.99V254.956Z" fill="white"/>
<path d="M186.493 254.951C186.532 254.951 186.561 252.66 186.561 249.838C186.561 247.015 186.532 244.719 186.493 244.719C186.453 244.719 186.419 247.011 186.419 249.838C186.419 252.665 186.453 254.951 186.493 254.951Z" fill="#E0E0E0"/>
<path d="M184 248.269C185.765 248.368 187.534 248.368 189.299 248.269C187.534 248.177 185.765 248.177 184 248.269Z" fill="#E0E0E0"/>
<path d="M183.966 251.937C183.966 251.971 185.158 252.006 186.635 252.006C188.112 252.006 189.304 251.971 189.304 251.937C187.526 251.839 185.744 251.839 183.966 251.937Z" fill="#E0E0E0"/>
<path d="M183.99 268.422H189.289V258.191H183.99V268.422Z" fill="white"/>
<path d="M186.493 268.427C186.532 268.427 186.561 266.141 186.561 263.314C186.561 260.487 186.532 258.201 186.493 258.201C186.453 258.201 186.419 260.487 186.419 263.314C186.419 266.141 186.453 268.427 186.493 268.427Z" fill="#E0E0E0"/>
<path d="M184 261.75C185.765 261.842 187.534 261.842 189.299 261.75C187.534 261.652 185.765 261.652 184 261.75Z" fill="#E0E0E0"/>
<path d="M183.966 265.408C185.744 265.5 187.526 265.5 189.304 265.408C187.526 265.31 185.744 265.31 183.966 265.408Z" fill="#E0E0E0"/>
<path d="M196.831 281.455H202.13V271.224H196.831V281.455Z" fill="white"/>
<path d="M199.328 281.456C199.368 281.456 199.402 279.169 199.402 276.342C199.402 273.515 199.368 271.229 199.328 271.229C199.289 271.229 199.26 273.515 199.26 276.342C199.26 279.169 199.289 281.456 199.328 281.456Z" fill="#E0E0E0"/>
<path d="M196.831 274.784C198.596 274.876 200.365 274.876 202.13 274.784C200.365 274.686 198.596 274.686 196.831 274.784Z" fill="#E0E0E0"/>
<path d="M196.801 278.442C198.581 278.533 200.365 278.533 202.145 278.442C200.365 278.343 198.581 278.343 196.801 278.442Z" fill="#E0E0E0"/>
<path d="M183.99 281.898H189.289V271.667H183.99V281.898Z" fill="white"/>
<path d="M186.493 281.898C186.532 281.898 186.561 279.607 186.561 276.78C186.561 273.953 186.532 271.667 186.493 271.667C186.453 271.667 186.419 273.958 186.419 276.78C186.419 279.602 186.453 281.898 186.493 281.898Z" fill="#E0E0E0"/>
<path d="M184 275.221C185.765 275.313 187.534 275.313 189.299 275.221C187.534 275.123 185.765 275.123 184 275.221Z" fill="#E0E0E0"/>
<path d="M183.966 278.879C185.744 278.971 187.526 278.971 189.304 278.879C187.526 278.787 185.744 278.787 183.966 278.879Z" fill="#E0E0E0"/>
<path d="M51.0831 286.357H77.1179L77.1179 169.527H51.0831L51.0831 286.357Z" fill="#EBEBEB"/>
<path d="M64.3508 192.541H72.2653V177.26H64.3508V192.541Z" fill="white"/>
<path d="M68.0848 192.541C68.1437 192.541 68.1928 189.099 68.1928 184.901C68.1928 180.702 68.1437 177.26 68.0848 177.26C68.026 177.26 67.9818 180.702 67.9818 184.901C67.9818 189.099 68.026 192.541 68.0848 192.541Z" fill="#E0E0E0"/>
<path d="M64.3508 182.57C65.668 182.675 66.9897 182.709 68.3105 182.674C69.6297 182.709 70.9498 182.675 72.2653 182.57C70.9499 182.463 69.6298 182.427 68.3105 182.462C66.9896 182.427 65.6678 182.463 64.3508 182.57Z" fill="#E0E0E0"/>
<path d="M64.3115 188.033C65.6383 188.14 66.97 188.176 68.3006 188.141C69.6313 188.176 70.9629 188.14 72.2898 188.033C70.9628 187.928 69.6312 187.894 68.3006 187.929C66.97 187.894 65.6385 187.928 64.3115 188.033Z" fill="#E0E0E0"/>
<path d="M64.3508 212.502H72.2653V197.221H64.3508V212.502Z" fill="white"/>
<path d="M68.0848 212.497C68.1437 212.497 68.1928 209.055 68.1928 204.857C68.1928 200.658 68.1437 197.216 68.0848 197.216C68.026 197.216 67.9818 200.658 67.9818 204.857C67.9818 209.055 68.026 212.497 68.0848 212.497Z" fill="#E0E0E0"/>
<path d="M64.3508 202.546C65.6678 202.654 66.9896 202.69 68.3105 202.654C69.6298 202.69 70.9499 202.654 72.2653 202.546C70.9498 202.442 69.6297 202.407 68.3105 202.443C66.9897 202.407 65.668 202.442 64.3508 202.546Z" fill="#E0E0E0"/>
<path d="M64.3115 207.993C65.6387 208.095 66.97 208.129 68.3006 208.097C69.6312 208.129 70.9626 208.095 72.2898 207.993C70.9629 207.886 69.6313 207.85 68.3006 207.885C66.97 207.85 65.6383 207.886 64.3115 207.993Z" fill="#E0E0E0"/>
<path d="M64.3508 232.458H72.2653V217.177H64.3508V232.458Z" fill="white"/>
<path d="M68.0848 232.458C68.1437 232.458 68.1928 229.016 68.1928 224.818C68.1928 220.619 68.1437 217.177 68.0848 217.177C68.026 217.177 67.9818 220.594 67.9818 224.818C67.9818 229.041 68.026 232.458 68.0848 232.458Z" fill="#E0E0E0"/>
<path d="M64.3508 222.487C65.6681 222.589 66.9897 222.623 68.3105 222.59C69.6297 222.623 70.9496 222.588 72.2653 222.487C70.9499 222.38 69.6298 222.343 68.3105 222.379C66.9896 222.343 65.6678 222.379 64.3508 222.487Z" fill="#E0E0E0"/>
<path d="M64.3115 227.949C65.6383 228.057 66.97 228.093 68.3006 228.058C69.6313 228.093 70.9629 228.057 72.2898 227.949C70.9629 227.842 69.6313 227.806 68.3006 227.841C66.97 227.806 65.6383 227.842 64.3115 227.949Z" fill="#E0E0E0"/>
<path d="M64.3508 252.414H72.2653V237.133H64.3508V252.414Z" fill="white"/>
<path d="M68.0848 252.414C68.1437 252.414 68.1928 248.972 68.1928 244.774C68.1928 240.575 68.1437 237.133 68.0848 237.133C68.026 237.133 67.9818 240.575 67.9818 244.774C67.9818 248.972 68.026 252.414 68.0848 252.414Z" fill="#E0E0E0"/>
<path d="M64.3508 242.443C65.6678 242.551 66.9896 242.587 68.3105 242.551C69.6298 242.587 70.9499 242.551 72.2653 242.443C70.9499 242.336 69.6298 242.3 68.3105 242.335C66.9896 242.299 65.6678 242.336 64.3508 242.443Z" fill="#E0E0E0"/>
<path d="M64.3115 247.905C65.6383 248.013 66.97 248.049 68.3006 248.014C69.6313 248.049 70.9629 248.013 72.2898 247.905C70.9626 247.804 69.6312 247.77 68.3006 247.802C66.97 247.77 65.6387 247.804 64.3115 247.905Z" fill="#E0E0E0"/>
<path d="M40.0137 286.357H58.9829L58.9829 169.527H40.0137L40.0137 286.357Z" fill="#E0E0E0"/>
<path d="M45.1756 192.541H53.0901V177.26H45.1756V192.541Z" fill="white"/>
<path d="M48.9094 192.541C48.9683 192.541 49.0174 189.099 49.0174 184.901C49.0174 180.702 48.9683 177.26 48.9094 177.26C48.8506 177.26 48.8064 180.702 48.8064 184.901C48.8064 189.099 48.8506 192.541 48.9094 192.541Z" fill="#E0E0E0"/>
<path d="M45.1755 182.57C46.4911 182.675 47.8112 182.709 49.1303 182.674C50.4511 182.709 51.7728 182.675 53.09 182.57C51.773 182.463 50.4512 182.427 49.1303 182.462C47.8111 182.427 46.4909 182.463 45.1755 182.57Z" fill="#E0E0E0"/>
<path d="M45.1411 188.033C46.4679 188.14 47.7996 188.176 49.1302 188.141C50.4609 188.176 51.7925 188.14 53.1194 188.033C51.7924 187.928 50.4608 187.894 49.1302 187.929C47.7996 187.894 46.4681 187.928 45.1411 188.033Z" fill="#E0E0E0"/>
<path d="M45.1756 212.659H53.0901V197.379H45.1756V212.659Z" fill="white"/>
<path d="M48.9094 212.664C48.9683 212.664 49.0174 209.223 49.0174 205.024C49.0174 200.825 48.9683 197.384 48.9094 197.384C48.8506 197.384 48.8064 200.801 48.8064 205.024C48.8064 209.247 48.8506 212.664 48.9094 212.664Z" fill="#E0E0E0"/>
<path d="M45.1755 202.689C46.4909 202.796 47.8111 202.832 49.1303 202.797C50.4512 202.832 51.773 202.796 53.09 202.689C51.7727 202.587 50.4511 202.553 49.1303 202.585C47.8112 202.553 46.4912 202.587 45.1755 202.689Z" fill="#E0E0E0"/>
<path d="M45.1411 208.156C46.4681 208.26 47.7996 208.294 49.1302 208.259C50.4608 208.294 51.7924 208.26 53.1194 208.156C51.7925 208.048 50.4609 208.012 49.1302 208.048C47.7996 208.012 46.4679 208.048 45.1411 208.156Z" fill="#E0E0E0"/>
<path d="M45.1756 232.787H53.0901V217.507H45.1756V232.787Z" fill="white"/>
<path d="M48.9094 232.782C48.9683 232.782 49.0174 229.365 49.0174 225.142C49.0174 220.919 48.9683 217.502 48.9094 217.502C48.8506 217.502 48.8064 220.943 48.8064 225.142C48.8064 229.341 48.8506 232.782 48.9094 232.782Z" fill="#E0E0E0"/>
<path d="M45.1755 222.812C46.4909 222.919 47.8111 222.955 49.1303 222.92C50.4512 222.955 51.773 222.919 53.09 222.812C51.7728 222.707 50.4511 222.673 49.1303 222.708C47.8112 222.673 46.4911 222.707 45.1755 222.812Z" fill="#E0E0E0"/>
<path d="M45.1411 228.279C46.4681 228.383 47.7996 228.418 49.1302 228.382C50.4608 228.418 51.7924 228.383 53.1194 228.279C51.7925 228.171 50.4609 228.135 49.1302 228.171C47.7996 228.135 46.4679 228.171 45.1411 228.279Z" fill="#E0E0E0"/>
<path d="M45.1756 252.906H53.0901V237.625H45.1756V252.906Z" fill="white"/>
<path d="M48.9094 252.905C48.9683 252.905 49.0174 249.464 49.0174 245.265C49.0174 241.067 48.9683 237.625 48.9094 237.625C48.8506 237.625 48.8064 241.067 48.8064 245.265C48.8064 249.464 48.8506 252.905 48.9094 252.905Z" fill="#E0E0E0"/>
<path d="M45.1755 242.935C46.4911 243.039 47.8112 243.074 49.1303 243.038C50.4511 243.074 51.7728 243.039 53.09 242.935C51.773 242.827 50.4512 242.791 49.1303 242.827C47.8111 242.791 46.4909 242.827 45.1755 242.935Z" fill="#E0E0E0"/>
<path d="M45.1411 248.397C46.4679 248.505 47.7996 248.541 49.1302 248.505C50.4609 248.541 51.7925 248.505 53.1194 248.397C51.7924 248.293 50.4608 248.258 49.1302 248.294C47.7996 248.258 46.4681 248.293 45.1411 248.397Z" fill="#E0E0E0"/>
<path d="M64.3508 272.37H72.2653V257.089H64.3508V272.37Z" fill="white"/>
<path d="M68.0848 272.36C68.1437 272.36 68.1928 268.918 68.1928 264.72C68.1928 260.521 68.1437 257.08 68.0848 257.08C68.026 257.08 67.9818 260.497 67.9818 264.72C67.9818 268.943 68.026 272.36 68.0848 272.36Z" fill="#E0E0E0"/>
<path d="M64.3508 262.399C65.6678 262.507 66.9896 262.543 68.3105 262.507C69.6298 262.543 70.9499 262.507 72.2653 262.399C70.9496 262.298 69.6297 262.263 68.3105 262.296C66.9897 262.263 65.6681 262.298 64.3508 262.399Z" fill="#E0E0E0"/>
<path d="M64.3115 267.866C65.6385 267.971 66.97 268.005 68.3006 267.969C69.6312 268.005 70.9628 267.971 72.2898 267.866C70.9629 267.759 69.6313 267.723 68.3006 267.758C66.97 267.723 65.6383 267.759 64.3115 267.866Z" fill="#E0E0E0"/>
<path d="M45.1756 273.029H53.0901V257.748H45.1756V273.029Z" fill="white"/>
<path d="M48.9094 273.029C48.9683 273.029 49.0174 269.587 49.0174 265.388C49.0174 261.19 48.9683 257.748 48.9094 257.748C48.8506 257.748 48.8064 261.19 48.8064 265.388C48.8064 269.587 48.8506 273.029 48.9094 273.029Z" fill="#E0E0E0"/>
<path d="M45.1755 263.058C46.4911 263.162 47.8112 263.197 49.1303 263.161C50.4511 263.197 51.7728 263.162 53.09 263.058C51.773 262.95 50.4512 262.914 49.1303 262.95C47.8111 262.914 46.4909 262.95 45.1755 263.058Z" fill="#E0E0E0"/>
<path d="M45.1411 268.52C46.4679 268.628 47.7996 268.664 49.1302 268.628C50.4609 268.664 51.7925 268.628 53.1194 268.52C51.7924 268.416 50.4608 268.381 49.1302 268.417C47.7996 268.381 46.4681 268.416 45.1411 268.52Z" fill="#E0E0E0"/>
<path d="M295.945 286.515H320.695V181.636H295.945V286.515Z" fill="#EBEBEB"/>
<path d="M308.561 203.51H316.083V188.981H308.561V203.51Z" fill="white"/>
<path d="M312.108 203.529C312.162 203.529 312.211 200.279 312.211 196.268C312.211 192.256 312.162 189.006 312.108 189.006C312.054 189.006 312.01 192.256 312.01 196.268C312.01 200.279 312.064 203.529 312.108 203.529Z" fill="#E0E0E0"/>
<path d="M308.561 194.031C311.066 194.168 313.577 194.168 316.082 194.031C313.577 193.899 311.066 193.899 308.561 194.031Z" fill="#E0E0E0"/>
<path d="M308.521 199.227C311.046 199.365 313.577 199.365 316.102 199.227C313.577 199.096 311.046 199.096 308.521 199.227Z" fill="#E0E0E0"/>
<path d="M308.561 222.487H316.083V207.959H308.561V222.487Z" fill="white"/>
<path d="M312.108 222.487C312.162 222.487 312.211 219.232 312.211 215.226C312.211 211.219 312.162 207.959 312.108 207.959C312.054 207.959 312.01 211.214 312.01 215.226C312.01 219.237 312.064 222.487 312.108 222.487Z" fill="#E0E0E0"/>
<path d="M308.561 213.008C311.066 213.139 313.577 213.139 316.082 213.008C313.577 212.871 311.066 212.871 308.561 213.008Z" fill="#E0E0E0"/>
<path d="M308.521 218.2C311.046 218.338 313.577 218.338 316.102 218.2C313.577 218.069 311.046 218.069 308.521 218.2Z" fill="#E0E0E0"/>
<path d="M308.561 241.46H316.083V226.932H308.561V241.46Z" fill="white"/>
<path d="M312.108 241.46C312.162 241.46 312.211 238.21 312.211 234.198C312.211 230.186 312.162 226.932 312.108 226.932C312.054 226.932 312.01 230.186 312.01 234.198C312.01 238.21 312.064 241.46 312.108 241.46Z" fill="#E0E0E0"/>
<path d="M308.561 231.981C311.066 232.112 313.577 232.112 316.082 231.981C313.577 231.843 311.066 231.843 308.561 231.981Z" fill="#E0E0E0"/>
<path d="M308.521 237.178C311.046 237.309 313.577 237.309 316.102 237.178C313.577 237.04 311.046 237.04 308.521 237.178Z" fill="#E0E0E0"/>
<path d="M308.561 260.433H316.083V245.904H308.561V260.433Z" fill="white"/>
<path d="M312.108 260.433C312.162 260.433 312.211 257.183 312.211 253.171C312.211 249.159 312.162 245.909 312.108 245.909C312.054 245.909 312.01 249.159 312.01 253.171C312.01 257.183 312.064 260.433 312.108 260.433Z" fill="#E0E0E0"/>
<path d="M308.561 250.954C311.066 251.091 313.577 251.091 316.082 250.954C313.577 250.822 311.066 250.822 308.561 250.954Z" fill="#E0E0E0"/>
<path d="M308.521 256.136C311.046 256.267 313.577 256.267 316.102 256.136C313.577 255.998 311.046 255.998 308.521 256.136Z" fill="#E0E0E0"/>
<path d="M285.421 286.515H303.453V181.636H285.421V286.515Z" fill="#E0E0E0"/>
<path d="M290.332 203.51H297.854V188.981H290.332V203.51Z" fill="white"/>
<path d="M293.88 203.529C293.934 203.529 293.978 200.279 293.978 196.268C293.978 192.256 293.934 189.006 293.88 189.006C293.826 189.006 293.777 192.256 293.777 196.268C293.777 200.279 293.821 203.529 293.88 203.529Z" fill="#E0E0E0"/>
<path d="M290.327 194.031C292.833 194.168 295.344 194.168 297.849 194.031C295.344 193.899 292.833 193.899 290.327 194.031Z" fill="#E0E0E0"/>
<path d="M290.288 199.227C292.815 199.365 295.347 199.365 297.874 199.227C295.347 199.096 292.815 199.096 290.288 199.227Z" fill="#E0E0E0"/>
<path d="M290.332 222.64H297.854V208.111H290.332V222.64Z" fill="white"/>
<path d="M293.88 222.64C293.934 222.64 293.978 219.39 293.978 215.378C293.978 211.366 293.934 208.116 293.88 208.116C293.826 208.116 293.777 211.366 293.777 215.378C293.777 219.39 293.821 222.64 293.88 222.64Z" fill="#E0E0E0"/>
<path d="M290.327 213.161C292.833 213.298 295.344 213.298 297.849 213.161C295.344 213.029 292.833 213.029 290.327 213.161Z" fill="#E0E0E0"/>
<path d="M290.288 218.357C292.815 218.489 295.347 218.489 297.874 218.357C295.347 218.22 292.815 218.22 290.288 218.357Z" fill="#E0E0E0"/>
<path d="M290.332 241.77H297.854V227.241H290.332V241.77Z" fill="white"/>
<path d="M293.88 241.77C293.934 241.77 293.978 238.52 293.978 234.508C293.978 230.496 293.934 227.246 293.88 227.246C293.826 227.246 293.777 230.496 293.777 234.508C293.777 238.52 293.821 241.77 293.88 241.77Z" fill="#E0E0E0"/>
<path d="M290.327 232.291C292.833 232.428 295.344 232.428 297.849 232.291C295.344 232.16 292.833 232.16 290.327 232.291Z" fill="#E0E0E0"/>
<path d="M290.288 237.487C292.815 237.619 295.347 237.619 297.874 237.487C295.347 237.35 292.815 237.35 290.288 237.487Z" fill="#E0E0E0"/>
<path d="M290.332 260.9H297.854V246.371H290.332V260.9Z" fill="white"/>
<path d="M293.88 260.9C293.934 260.9 293.978 257.65 293.978 253.638C293.978 249.626 293.934 246.376 293.88 246.376C293.826 246.376 293.777 249.626 293.777 253.638C293.777 257.65 293.821 260.9 293.88 260.9Z" fill="#E0E0E0"/>
<path d="M290.327 251.421C292.833 251.558 295.344 251.558 297.849 251.421C295.344 251.29 292.833 251.29 290.327 251.421Z" fill="#E0E0E0"/>
<path d="M290.288 256.627C292.815 256.758 295.347 256.758 297.874 256.627C295.347 256.49 292.815 256.49 290.288 256.627Z" fill="#E0E0E0"/>
<path d="M308.561 279.41H316.083V264.882H308.561V279.41Z" fill="white"/>
<path d="M312.108 279.41C312.162 279.41 312.211 276.156 312.211 272.144C312.211 268.132 312.162 264.882 312.108 264.882C312.054 264.882 312.01 268.132 312.01 272.144C312.01 276.156 312.064 279.41 312.108 279.41Z" fill="#E0E0E0"/>
<path d="M308.561 269.926C311.066 270.064 313.577 270.064 316.082 269.926C313.577 269.795 311.066 269.795 308.561 269.926Z" fill="#E0E0E0"/>
<path d="M308.521 275.123C311.046 275.261 313.577 275.261 316.102 275.123C313.577 274.992 311.046 274.992 308.521 275.123Z" fill="#E0E0E0"/>
<path d="M290.332 280.03H297.854V265.501H290.332V280.03Z" fill="white"/>
<path d="M293.88 280.03C293.934 280.03 293.978 276.78 293.978 272.768C293.978 268.756 293.934 265.506 293.88 265.506C293.826 265.506 293.777 268.756 293.777 272.768C293.777 276.78 293.821 280.03 293.88 280.03Z" fill="#E0E0E0"/>
<path d="M290.327 270.551C292.833 270.688 295.344 270.688 297.849 270.551C295.344 270.42 292.833 270.42 290.327 270.551Z" fill="#E0E0E0"/>
<path d="M290.288 275.747C292.815 275.879 295.347 275.879 297.874 275.747C295.347 275.61 292.815 275.61 290.288 275.747Z" fill="#E0E0E0"/>
<path d="M323.344 286.465H338.162V223.687H323.344V286.465Z" fill="#EBEBEB"/>
<path d="M330.896 236.779H335.4V228.082H330.896V236.779Z" fill="white"/>
<path d="M333.025 236.779C333.055 236.779 333.084 234.813 333.084 232.433C333.084 230.054 333.055 228.082 333.025 228.082C332.996 228.082 332.961 230.049 332.961 232.433C332.961 234.818 332.991 236.779 333.025 236.779Z" fill="#E0E0E0"/>
<path d="M330.901 231.106C330.901 231.135 331.906 231.165 333.148 231.165C334.389 231.165 335.4 231.135 335.4 231.106C333.901 231.021 332.399 231.021 330.901 231.106Z" fill="#E0E0E0"/>
<path d="M330.876 234.213C332.388 234.292 333.903 234.292 335.415 234.213C333.903 234.134 332.388 234.134 330.876 234.213Z" fill="#E0E0E0"/>
<path d="M330.896 248.136H335.4V239.439H330.896V248.136Z" fill="white"/>
<path d="M333.025 248.136C333.055 248.136 333.084 246.17 333.084 243.79C333.084 241.411 333.055 239.439 333.025 239.439C332.996 239.439 332.961 241.406 332.961 243.79C332.961 246.175 332.991 248.136 333.025 248.136Z" fill="#E0E0E0"/>
<path d="M330.901 242.463C332.399 242.542 333.901 242.542 335.4 242.463C333.901 242.378 332.399 242.378 330.901 242.463Z" fill="#E0E0E0"/>
<path d="M330.876 245.57C332.388 245.655 333.903 245.655 335.415 245.57C333.903 245.491 332.388 245.491 330.876 245.57Z" fill="#E0E0E0"/>
<path d="M330.896 259.494H335.4V250.796H330.896V259.494Z" fill="white"/>
<path d="M333.025 259.494C333.055 259.494 333.084 257.527 333.084 255.147C333.084 252.768 333.055 250.796 333.025 250.796C332.996 250.796 332.961 252.763 332.961 255.147C332.961 257.532 332.991 259.494 333.025 259.494Z" fill="#E0E0E0"/>
<path d="M330.901 253.82C332.399 253.899 333.901 253.899 335.4 253.82C333.901 253.741 332.399 253.741 330.901 253.82Z" fill="#E0E0E0"/>
<path d="M330.876 256.927C332.388 257.012 333.903 257.012 335.415 256.927C335.415 256.898 334.399 256.868 333.143 256.868C331.887 256.868 330.876 256.898 330.876 256.927Z" fill="#E0E0E0"/>
<path d="M330.896 270.851H335.4V262.153H330.896V270.851Z" fill="white"/>
<path d="M333.025 270.851C333.055 270.851 333.084 268.884 333.084 266.504C333.084 264.125 333.055 262.158 333.025 262.158C332.996 262.158 332.961 264.1 332.961 266.504C332.961 268.909 332.991 270.851 333.025 270.851Z" fill="#E0E0E0"/>
<path d="M330.901 265.177C332.399 265.256 333.901 265.256 335.4 265.177C333.901 265.098 332.399 265.098 330.901 265.177Z" fill="#E0E0E0"/>
<path d="M330.876 268.284C332.388 268.369 333.903 268.369 335.415 268.284C335.415 268.255 334.399 268.225 333.143 268.225C331.887 268.225 330.876 268.255 330.876 268.284Z" fill="#E0E0E0"/>
<path d="M317.049 286.465H327.844V223.687H317.049V286.465Z" fill="#E0E0E0"/>
<path d="M319.983 236.779H324.488V228.082H319.983V236.779Z" fill="white"/>
<path d="M322.113 236.779C322.142 236.779 322.172 234.813 322.172 232.433C322.172 230.054 322.142 228.082 322.113 228.082C322.083 228.082 322.049 230.049 322.049 232.433C322.049 234.818 322.078 236.779 322.113 236.779Z" fill="#E0E0E0"/>
<path d="M319.988 231.106C319.988 231.135 320.994 231.165 322.235 231.165C323.477 231.165 324.488 231.135 324.488 231.106C322.989 231.021 321.487 231.021 319.988 231.106Z" fill="#E0E0E0"/>
<path d="M319.964 234.213C321.475 234.292 322.99 234.292 324.502 234.213C322.99 234.134 321.475 234.134 319.964 234.213Z" fill="#E0E0E0"/>
<path d="M319.983 248.23H324.488V239.533H319.983V248.23Z" fill="white"/>
<path d="M322.113 248.23C322.142 248.23 322.172 246.263 322.172 243.884C322.172 241.504 322.142 239.533 322.113 239.533C322.083 239.533 322.049 241.499 322.049 243.884C322.049 246.268 322.078 248.23 322.113 248.23Z" fill="#E0E0E0"/>
<path d="M319.988 242.556C319.988 242.586 320.994 242.615 322.235 242.615C323.477 242.615 324.488 242.586 324.488 242.556C322.989 242.471 321.487 242.471 319.988 242.556Z" fill="#E0E0E0"/>
<path d="M319.964 245.663C321.475 245.742 322.99 245.742 324.502 245.663C322.99 245.585 321.475 245.585 319.964 245.663Z" fill="#E0E0E0"/>
<path d="M319.983 259.68H324.488V250.983H319.983V259.68Z" fill="white"/>
<path d="M322.113 259.68C322.142 259.68 322.172 257.714 322.172 255.334C322.172 252.955 322.142 250.983 322.113 250.983C322.083 250.983 322.049 252.95 322.049 255.334C322.049 257.719 322.078 259.68 322.113 259.68Z" fill="#E0E0E0"/>
<path d="M319.988 254.007C321.487 254.085 322.989 254.085 324.488 254.007C322.989 253.928 321.487 253.928 319.988 254.007Z" fill="#E0E0E0"/>
<path d="M319.964 257.119C321.475 257.204 322.991 257.204 324.502 257.119C322.99 257.04 321.475 257.04 319.964 257.119Z" fill="#E0E0E0"/>
<path d="M319.983 271.131H324.488V262.434H319.983V271.131Z" fill="white"/>
<path d="M322.113 271.131C322.142 271.131 322.172 269.164 322.172 266.785C322.172 264.405 322.142 262.434 322.113 262.434C322.083 262.434 322.049 264.4 322.049 266.785C322.049 269.169 322.078 271.131 322.113 271.131Z" fill="#E0E0E0"/>
<path d="M319.988 265.477C321.487 265.556 322.989 265.556 324.488 265.477C322.989 265.398 321.487 265.398 319.988 265.477Z" fill="#E0E0E0"/>
<path d="M319.964 268.564C321.475 268.65 322.991 268.65 324.502 268.564C324.502 268.535 323.487 268.505 322.231 268.505C320.974 268.505 319.964 268.535 319.964 268.564Z" fill="#E0E0E0"/>
<path d="M330.896 282.208H335.4V273.51H330.896V282.208Z" fill="white"/>
<path d="M333.025 282.193C333.055 282.193 333.084 280.226 333.084 277.847C333.084 275.467 333.055 273.501 333.025 273.501C332.996 273.501 332.961 275.467 332.961 277.847C332.961 280.226 332.991 282.193 333.025 282.193Z" fill="#E0E0E0"/>
<path d="M330.901 276.534C332.399 276.613 333.901 276.613 335.4 276.534C333.901 276.455 332.399 276.455 330.901 276.534Z" fill="#E0E0E0"/>
<path d="M330.876 279.646C330.876 279.676 331.892 279.705 333.143 279.705C334.394 279.705 335.415 279.676 335.415 279.646C333.903 279.561 332.388 279.561 330.876 279.646Z" fill="#E0E0E0"/>
<path d="M319.983 282.586H324.488V273.889H319.983V282.586Z" fill="white"/>
<path d="M322.113 282.581C322.142 282.581 322.172 280.615 322.172 278.235C322.172 275.856 322.142 273.884 322.113 273.884C322.083 273.884 322.049 275.851 322.049 278.235C322.049 280.62 322.078 282.581 322.113 282.581Z" fill="#E0E0E0"/>
<path d="M319.988 276.908C321.487 276.986 322.989 276.986 324.488 276.908C322.989 276.829 321.487 276.829 319.988 276.908Z" fill="#E0E0E0"/>
<path d="M319.964 280.015C321.475 280.1 322.991 280.1 324.502 280.015C324.502 279.985 323.487 279.956 322.231 279.956C320.974 279.956 319.964 279.985 319.964 280.015Z" fill="#E0E0E0"/>
<path d="M212.066 107.535C212.297 105.839 209.907 104.442 208.111 104.3C207.257 104.231 206.369 104.359 205.555 104.079C203.798 103.464 203.102 101.188 201.379 100.465C200.099 99.9242 198.622 100.406 197.38 101.03C196.139 101.655 194.927 102.446 193.519 102.535C192.312 102.614 191.002 102.166 189.942 102.756C189.157 103.199 188.745 104.108 188.018 104.644C187.262 105.108 186.388 105.345 185.501 105.327C184.617 105.305 183.737 105.448 182.906 105.75C182.101 106.119 181.434 106.97 181.605 107.84L212.066 107.535Z" fill="#EBEBEB"/>
<path d="M280.524 85.1158C280.759 83.4196 278.37 82.0233 276.574 81.8758C275.715 81.807 274.827 81.9398 274.013 81.6546C272.256 81.045 271.559 78.7686 269.842 78.041C268.557 77.5002 267.08 77.982 265.838 78.6113C264.597 79.2406 263.385 80.0272 261.977 80.1157C260.77 80.1944 259.46 79.7421 258.405 80.337C257.615 80.7746 257.203 81.6841 256.476 82.22C255.722 82.6891 254.847 82.9267 253.959 82.9034C253.075 82.8825 252.195 83.0276 251.364 83.3311C250.559 83.6999 249.892 84.5504 250.063 85.4157L280.524 85.1158Z" fill="#EBEBEB"/>
<path d="M42.6879 154.62C42.9234 152.924 40.5339 151.528 38.7626 151.385C37.9039 151.316 37.0158 151.449 36.2062 151.164C34.4447 150.549 33.7529 148.273 32.0306 147.55C30.7451 147.009 29.2731 147.491 28.0268 148.116C26.7805 148.74 25.5734 149.532 24.1701 149.62C22.9582 149.699 21.6481 149.251 20.5932 149.841C19.8032 150.284 19.391 151.193 18.6649 151.729C17.8942 152.197 17.0041 152.429 16.1036 152.398C15.2197 152.376 14.3394 152.519 13.5079 152.821C12.7082 153.189 12.0359 154.04 12.2077 154.91L42.6879 154.62Z" fill="#EBEBEB"/>
<path d="M141.464 88.8572C141.749 86.7972 138.849 85.106 136.67 84.9241C135.635 84.8405 134.555 84.9978 133.569 84.6537C131.44 83.9113 130.586 81.1531 128.505 80.2731C126.95 79.6143 125.159 80.1993 123.653 80.9614C122.146 81.7234 120.655 82.6772 118.972 82.7854C117.5 82.8788 115.915 82.3331 114.634 83.0509C113.678 83.5868 113.162 84.6881 112.299 85.342C111.435 85.9959 110.312 86.1138 109.247 86.1679C108.182 86.222 107.068 86.2368 106.097 86.6842C105.125 87.1316 104.32 88.1591 104.522 89.2161L141.464 88.8572Z" fill="#E0E0E0"/>
<path d="M337.372 164.197C337.657 162.142 334.757 160.446 332.579 160.264C331.538 160.181 330.464 160.338 329.478 159.994C327.348 159.251 326.494 156.488 324.414 155.613C322.859 154.954 321.068 155.539 319.561 156.302C318.055 157.064 316.563 158.017 314.88 158.126C313.408 158.219 311.823 157.673 310.543 158.391C309.586 158.927 309.071 160.028 308.207 160.677C307.344 161.326 306.245 161.449 305.15 161.508C304.056 161.567 302.977 161.577 302.005 162.024C301.034 162.472 300.224 163.499 300.43 164.556L337.372 164.197Z" fill="#E0E0E0"/>
<path d="M337.132 286.461H336.308H333.884L324.561 286.485L290.283 286.524L177.209 286.618L64.1054 286.579L29.8324 286.539L20.5097 286.515L29.8324 286.49L64.1054 286.451L177.209 286.411L290.288 286.451L324.566 286.49L333.889 286.515H336.313L337.132 286.461Z" fill="#263238"/>
<path d="M148.883 110.018H121.562V126.085H148.883V110.018Z" fill="#E0E0E0"/>
<path d="M135.944 109.482H108.624V125.549H135.944V109.482Z" fill="#EBEBEB"/>
<path d="M189.122 124.841H70.5626V131.316H189.122V124.841Z" fill="#E0E0E0"/>
<path d="M150.62 106.906H105.812V110.391H150.62V106.906Z" fill="#E0E0E0"/>
<path d="M160.207 286.465L76.8382 286.357L76.6959 131.316H160.207V286.465Z" fill="#EBEBEB"/>
<path d="M95.0224 141.134H85.4249V158.425H95.0224V141.134Z" fill="#455A64"/>
<path d="M95.0224 166.144H85.4249V183.436H95.0224V166.144Z" fill="#455A64"/>
<path d="M95.0224 191.154H85.4249V208.446H95.0224V191.154Z" fill="#455A64"/>
<path d="M95.0224 216.165H85.4249V233.456H95.0224V216.165Z" fill="#455A64"/>
<path d="M95.0224 239.415H85.4249V256.706H95.0224V239.415Z" fill="#455A64"/>
<path d="M150.232 141.134H140.635V158.425H150.232V141.134Z" fill="#455A64"/>
<path d="M122.99 114.379H114.266V125.667H122.99V114.379Z" fill="#455A64"/>
<path d="M150.232 166.144H140.635V183.436H150.232V166.144Z" fill="#455A64"/>
<path d="M150.232 191.154H140.635V208.446H150.232V191.154Z" fill="#455A64"/>
<path d="M150.232 216.165H140.635V233.456H150.232V216.165Z" fill="#455A64"/>
<path d="M150.232 239.415H140.635V256.706H150.232V239.415Z" fill="#455A64"/>
<path d="M131.606 131.316H103.31V286.46H131.606V131.316Z" fill="#455A64"/>
<g opacity="0.3">
<path d="M131.606 179.36L103.31 202.984V211.617L131.606 187.605V179.36Z" fill="white"/>
</g>
<g opacity="0.3">
<path d="M131.606 134.217L103.31 157.84V166.474L131.606 142.462V134.217Z" fill="white"/>
</g>
<g opacity="0.3">
<path d="M131.606 198.411L103.31 222.035V239.415L131.606 215.496V198.411Z" fill="white"/>
</g>
<path d="M183.563 129.88H160.212V286.333H183.563V129.88Z" fill="#E0E0E0"/>
<path d="M183.951 286.328C183.882 286.328 183.75 254.779 183.656 215.865C183.563 176.951 183.539 145.397 183.612 145.397C183.686 145.397 183.813 176.941 183.912 215.865C184.01 254.788 184.024 286.328 183.951 286.328Z" fill="#263238"/>
<path d="M177.656 141.134H168.058V158.425H177.656V141.134Z" fill="#263238"/>
<path d="M177.656 166.144H168.058V183.436H177.656V166.144Z" fill="#263238"/>
<path d="M177.656 191.154H168.058V208.446H177.656V191.154Z" fill="#263238"/>
<path d="M177.656 216.165H168.058V233.456H177.656V216.165Z" fill="#263238"/>
<path d="M177.656 239.415H168.058V256.706H177.656V239.415Z" fill="#263238"/>
<path d="M177.656 263.771H168.058V281.062H177.656V263.771Z" fill="#263238"/>
<path d="M133.491 257.075H100.984V260.329H133.491V257.075Z" fill="#EBEBEB"/>
<path d="M131.606 159.473H103.31V161.366H131.606V159.473Z" fill="#263238"/>
<path d="M131.606 186.828H103.31V188.721H131.606V186.828Z" fill="#263238"/>
<path d="M131.386 236.765H103.089V238.657H131.386V236.765Z" fill="#263238"/>
<path d="M132.681 212.92H104.384V214.813H132.681V212.92Z" fill="#263238"/>
<path d="M125.993 219.911C126.037 219.965 121.813 223.662 116.563 228.171C111.312 232.679 107.009 236.288 106.96 236.234C106.911 236.18 111.141 232.482 116.396 227.974C121.651 223.466 125.944 219.857 125.993 219.911Z" fill="#263238"/>
<path d="M126.234 236.706C126.283 236.76 122.058 240.457 116.803 244.965C111.548 249.474 107.25 253.082 107.206 253.028C107.162 252.974 111.381 249.277 116.636 244.774C121.891 240.27 126.19 236.652 126.234 236.706Z" fill="#263238"/>
<path d="M125.89 195.122C125.934 195.176 122.838 197.89 118.972 201.184C115.105 204.478 111.931 207.084 111.882 207.049C111.833 207.015 114.934 204.281 118.805 200.987C122.676 197.693 125.846 195.068 125.89 195.122Z" fill="#263238"/>
<path d="M118.152 198.205C117.316 199.14 116.419 200.021 115.468 200.84C114.572 201.722 113.618 202.543 112.613 203.298C113.446 202.357 114.342 201.475 115.297 200.658C116.19 199.774 117.144 198.954 118.152 198.205Z" fill="#263238"/>
<path d="M108.319 177.988C108.28 177.929 112.534 174.674 117.824 170.722C123.113 166.769 127.436 163.602 127.475 163.657C127.514 163.711 123.265 166.97 117.976 170.928C112.686 174.886 108.364 178.042 108.319 177.988Z" fill="#263238"/>
<path d="M114.183 175.505C114.484 175.233 114.813 174.994 115.164 174.792L117.578 173.16L119.978 171.498C120.294 171.245 120.636 171.026 120.998 170.844C120.723 171.141 120.417 171.408 120.086 171.641C119.497 172.108 118.668 172.723 117.725 173.372C116.783 174.021 115.905 174.566 115.272 174.945C114.932 175.173 114.566 175.361 114.183 175.505Z" fill="#263238"/>
<path d="M126.818 137.053C126.818 137.053 126.759 137.127 126.626 137.24C126.494 137.353 126.288 137.535 126.052 137.732L123.918 139.512L116.857 145.362L109.826 151.262L107.691 153.047L107.108 153.538C106.97 153.647 106.897 153.701 106.887 153.691C106.943 153.621 107.005 153.557 107.073 153.499L107.628 153.007C108.148 152.55 108.854 151.926 109.708 151.164C111.479 149.62 113.943 147.511 116.695 145.215C119.448 142.919 121.965 140.878 123.805 139.418L125.993 137.702L126.597 137.25C126.661 137.175 126.736 137.109 126.818 137.053Z" fill="#263238"/>
<path d="M118.408 140.598C117.802 141.239 117.135 141.819 116.415 142.329C115.749 142.904 115.029 143.414 114.266 143.853C114.872 143.213 115.539 142.635 116.258 142.127C116.925 141.551 117.645 141.039 118.408 140.598Z" fill="#263238"/>
<path d="M92.206 173.303C91.6125 174.036 90.9557 174.715 90.2433 175.333C89.5789 176.01 88.8546 176.626 88.0795 177.172C88.6834 176.44 89.3482 175.761 90.0667 175.141C90.7225 174.465 91.4386 173.849 92.206 173.303Z" fill="#263238"/>
<path d="M148.019 198.042C147.41 198.885 146.736 199.679 146.003 200.417C145.332 201.214 144.595 201.952 143.8 202.625C144.403 201.776 145.078 200.979 145.816 200.245C146.488 199.451 147.225 198.714 148.019 198.042Z" fill="#263238"/>
<path d="M93.0057 221.76C92.3313 222.634 91.5916 223.456 90.7928 224.218C90.0523 225.034 89.2501 225.792 88.3934 226.484C89.0678 225.61 89.8076 224.788 90.6063 224.026C91.3455 223.209 92.1478 222.451 93.0057 221.76Z" fill="#263238"/>
<path d="M146.317 243.731C145.742 244.512 145.1 245.241 144.398 245.909C143.759 246.636 143.056 247.304 142.298 247.905C142.874 247.126 143.516 246.397 144.217 245.727C144.858 245.002 145.56 244.334 146.317 243.731Z" fill="#263238"/>
<path d="M146.15 246.558C145.796 247.118 145.37 247.628 144.884 248.077C144.453 248.587 143.958 249.038 143.412 249.42C143.766 248.86 144.192 248.35 144.678 247.9C145.11 247.393 145.605 246.942 146.15 246.558Z" fill="#263238"/>
<path d="M150.232 264.494H140.635V281.785H150.232V264.494Z" fill="#455A64"/>
<path d="M94.9536 264.208H85.3562V281.5H94.9536V264.208Z" fill="#455A64"/>
<g opacity="0.3">
<path d="M106.077 286.367L131.611 265.418L131.606 260.128L127.686 260.236L103.334 281.716L103.388 286.357" fill="white"/>
</g>
<g opacity="0.3">
<path d="M111.862 286.377L114.217 286.411L131.621 271.224L131.602 270.128L131.606 268.923L111.862 286.377Z" fill="white"/>
</g>
<path d="M117.235 286.411C117.166 286.411 117.107 281.003 117.107 274.312C117.107 267.621 117.166 262.212 117.235 262.212C117.304 262.212 117.362 267.621 117.362 274.312C117.362 281.003 117.308 286.411 117.235 286.411Z" fill="#263238"/>
<path d="M115.837 272.852H114.139V278.722H115.837V272.852Z" fill="#EBEBEB"/>
<path d="M120.149 272.852H118.452V278.722H120.149V272.852Z" fill="#EBEBEB"/>
<path d="M189.275 131.316C189.275 131.385 162.7 131.444 129.904 131.444C97.1077 131.444 70.5332 131.385 70.5332 131.316C70.5332 131.247 97.1028 131.188 129.904 131.188C162.705 131.188 189.275 131.257 189.275 131.316Z" fill="#263238"/>
<path d="M189.275 124.969C189.275 125.038 162.7 125.097 129.904 125.097C97.1077 125.097 70.5332 125.038 70.5332 124.969C70.5332 124.9 97.1028 124.841 129.904 124.841C162.705 124.841 189.275 124.895 189.275 124.969Z" fill="#263238"/>
<path d="M150.958 110.391C150.958 110.46 140.885 110.519 128.461 110.519C116.038 110.519 105.984 110.46 105.984 110.391C105.984 110.323 116.052 110.264 128.481 110.264C140.91 110.264 150.958 110.318 150.958 110.391Z" fill="#263238"/>
<path d="M76.8382 286.357C76.7695 286.357 76.642 251.824 76.5537 209.232C76.4653 166.641 76.4555 132.103 76.5291 132.103C76.6027 132.103 76.7254 166.626 76.8088 209.232C76.8922 251.839 76.9069 286.357 76.8382 286.357Z" fill="#263238"/>
<path d="M81.0336 99.6145L61.6228 93.0903L42.3985 99.526C39.9452 100.608 37.7814 101.266 37.7814 103.4V114.049C37.7637 121.588 39.9654 128.964 44.111 135.254C48.3895 141.803 54.5481 146.899 61.775 149.871C69.6256 147.481 75.5136 141.115 79.0808 135.667C83.2303 129.38 85.434 122.005 85.4153 114.467V104.885C85.4496 101.837 83.7225 100.347 81.0336 99.6145Z" fill="#0A3323"/>
<path d="M61.7698 145.677L61.6913 145.643C55.5254 143.11 50.2494 138.798 46.5332 133.256C42.8169 127.713 40.8278 121.189 40.8184 114.511V105.318C40.8184 103.518 42.4032 102.859 44.253 102.058L44.94 101.758L61.6226 96.1681L78.4378 101.822C81.1217 102.555 82.4269 104.123 82.4269 106.611V114.875C82.4373 121.426 80.5226 127.835 76.9216 133.302C74.5321 136.931 69.3948 143.361 61.8532 145.657L61.7698 145.677ZM61.6226 96.6843L45.1411 102.21L44.4542 102.51C42.6878 103.233 41.309 103.843 41.309 105.318V114.511C41.3197 121.08 43.2746 127.498 46.9264 132.952C50.5781 138.407 55.7626 142.654 61.8238 145.156C69.1838 142.884 74.1935 136.586 76.5438 133.027C80.0819 127.637 81.959 121.322 81.9411 114.87V106.606C81.9411 104.339 80.7832 102.968 78.3102 102.289L61.6226 96.6843Z" fill="white"/>
<path d="M83.5703 96.9301C84.019 97.0278 84.4588 97.1627 84.8852 97.3333C85.4052 97.5323 85.8994 97.7931 86.3572 98.1101C86.9934 98.5413 87.5222 99.1132 87.9028 99.7817C88.3645 100.634 88.6136 101.585 88.629 102.555C88.629 103.612 88.629 104.752 88.629 105.996C88.629 108.454 88.6536 111.286 88.629 114.433C88.5469 121.942 86.5069 129.3 82.7116 135.775C80.4388 139.665 77.6308 143.215 74.3703 146.321C70.9356 149.536 66.76 152.373 61.873 153.878H61.8288H61.7896C60.0639 153.153 58.3799 152.332 56.7455 151.419C55.0723 150.462 53.4614 149.4 51.9222 148.239C48.7372 145.83 45.9003 142.991 43.4926 139.802C40.8861 136.372 38.7965 132.577 37.2906 128.538C35.8531 124.673 34.9709 120.622 34.6704 116.508C34.5183 114.502 34.5625 112.52 34.5526 110.578C34.5428 108.636 34.5526 106.719 34.5526 104.836V102.024C34.5383 101.557 34.558 101.091 34.6115 100.627C34.6921 100.156 34.8933 99.7141 35.1954 99.3441C35.8182 98.6732 36.5757 98.1421 37.4181 97.7856C38.2277 97.407 39.0422 97.0776 39.8371 96.7286L61.5933 89.4669H61.6227L77.7558 94.9291L82.0639 96.4041L83.1728 96.7925C83.423 96.8761 83.5457 96.9301 83.5457 96.9301C83.5457 96.9301 83.4181 96.8957 83.1679 96.8121L82.0492 96.4483L77.7264 95.0225L61.5688 89.6144H61.6227L39.9205 96.9351C39.1208 97.289 38.3112 97.6184 37.5114 97.997C36.6999 98.33 35.9688 98.8328 35.3672 99.472C35.0861 99.815 34.903 100.228 34.8372 100.667C34.7835 101.117 34.7671 101.571 34.7882 102.024V104.821C34.7882 106.702 34.7882 108.617 34.7882 110.564C34.7882 112.53 34.7538 114.497 34.9059 116.463C35.1998 120.56 36.0772 124.593 37.5114 128.44C39.0125 132.453 41.0939 136.223 43.6889 139.63C46.081 142.8 48.8997 145.622 52.0645 148.017C53.5949 149.172 55.196 150.229 56.8584 151.184C58.4847 152.092 60.1586 152.913 61.873 153.642H61.8239C66.6668 152.167 70.8227 149.345 74.2329 146.149C77.4896 143.064 80.2975 139.535 82.5742 135.667C84.5976 132.217 86.1349 128.502 87.1423 124.63C87.9968 121.295 88.4579 117.871 88.5162 114.428C88.5162 111.291 88.5162 108.464 88.5456 105.996C88.5456 104.762 88.5456 103.617 88.5456 102.555C88.5314 101.605 88.2854 100.673 87.8292 99.8407C87.4578 99.1806 86.943 98.6127 86.3229 98.1789C85.8726 97.8599 85.3868 97.5942 84.8754 97.3874C84.5582 97.2532 84.2339 97.1367 83.9039 97.0383L83.5703 96.9301Z" fill="#0A3323"/>
<path d="M60.9849 129.713L50.0234 120.524L53.2226 116.694L60.5728 122.855L71.8287 110.849L75.4645 114.266L60.9849 129.713Z" fill="white"/>
<path d="M283.63 131.065L287.064 125.165C285.328 120.037 285.569 114.444 287.739 109.484C289.91 104.525 293.853 100.559 298.794 98.3648C303.735 96.1709 309.316 95.908 314.441 97.628C319.565 99.3479 323.862 102.926 326.488 107.66C329.113 112.393 329.876 117.939 328.628 123.208C327.379 128.476 324.209 133.087 319.74 136.132C315.272 139.178 309.828 140.438 304.478 139.666C299.129 138.894 294.262 136.145 290.833 131.96L283.63 131.065Z" fill="white"/>
<path d="M283.63 131.065L284.12 131.114L285.509 131.281L290.872 131.935L290.813 132.014L290.632 131.626L290.906 131.955C293.197 134.731 296.141 136.892 299.473 138.243C300.507 138.662 301.572 138.999 302.658 139.251C303.823 139.503 305.006 139.668 306.196 139.743C311.722 140.102 317.173 138.305 321.406 134.728C323.779 132.73 325.696 130.245 327.029 127.442C328.437 124.458 329.136 121.188 329.07 117.889C329.03 114.431 328.144 111.037 326.49 108.002L325.803 106.847C325.562 106.473 325.312 106.119 325.052 105.755C324.552 105.046 324.01 104.368 323.428 103.725C323.153 103.385 322.814 103.105 322.51 102.795C322.206 102.486 321.907 102.176 321.563 101.91L320.557 101.109C320.391 100.976 320.229 100.834 320.067 100.716L319.532 100.367C316.757 98.4972 313.591 97.2911 310.278 96.8415C307.168 96.4462 304.009 96.7399 301.024 97.7019C295.707 99.4017 291.257 103.103 288.61 108.027C288.463 108.302 288.325 108.577 288.183 108.848L287.972 109.251L287.805 109.669L287.158 111.321C286.819 112.388 286.544 113.475 286.333 114.575C285.715 118.112 285.988 121.747 287.128 125.151C286 127.048 285.136 128.504 284.542 129.492L283.87 130.618L283.635 131.006L283.846 130.628L284.488 129.507L287.035 125.082V125.126C285.87 121.725 285.571 118.087 286.166 114.541C286.376 113.431 286.65 112.335 286.986 111.257L287.634 109.59L287.8 109.167L288.011 108.759L288.438 107.928C290.522 104.054 293.725 100.9 297.629 98.8824C301.532 96.8644 305.953 96.0759 310.312 96.6203C313.647 97.0679 316.835 98.2718 319.635 100.14L320.18 100.494C320.361 100.612 320.523 100.76 320.67 100.893L321.686 101.704C322.034 101.969 322.324 102.304 322.643 102.599C322.962 102.894 323.29 103.194 323.57 103.538C324.165 104.193 324.718 104.886 325.224 105.613C325.479 105.981 325.739 106.34 325.984 106.714L326.642 107.889C328.263 110.896 329.155 114.242 329.248 117.658C329.341 121.074 328.632 124.464 327.176 127.555C325.88 130.283 324.034 132.712 321.753 134.69C319.473 136.667 316.809 138.15 313.928 139.045C311.42 139.811 308.793 140.112 306.176 139.934C304.976 139.852 303.783 139.679 302.609 139.418C301.513 139.162 300.44 138.819 299.4 138.391C296.048 137.016 293.095 134.818 290.813 131.999L290.906 131.94L290.946 132.029H290.847L285.45 131.301L284.081 131.109L283.63 131.065Z" fill="#263238"/>
<path d="M313.982 111.547H298.266V127.294H313.982V111.547Z" fill="#E0E0E0"/>
<path d="M313.982 127.324C313.981 127.296 313.981 127.268 313.982 127.24C313.982 127.181 313.982 127.107 313.982 127.019C313.982 126.812 313.982 126.527 313.982 126.168C313.982 125.406 313.982 124.325 313.953 122.953C313.953 120.19 313.919 116.272 313.899 111.571L314.007 111.684H298.306C298.276 111.714 298.546 111.444 298.433 111.562V115.8C298.433 117.186 298.433 118.548 298.433 119.87C298.433 122.511 298.433 125.008 298.433 127.299L298.325 127.186L309.684 127.245H312.888H313.742H313.963H314.041H313.767H312.937L309.753 127.275L298.325 127.329H298.212V127.324C298.212 125.033 298.212 122.535 298.212 119.895C298.212 118.572 298.212 117.211 298.212 115.824V111.586L298.34 111.453H314.041H314.154V111.562C314.154 116.291 314.11 120.234 314.095 123.017C314.095 124.374 314.095 125.451 314.066 126.203C314.066 126.557 314.066 126.832 314.066 127.034C314.045 127.132 314.017 127.229 313.982 127.324Z" fill="#263238"/>
<path d="M308.629 125.18L299.179 117.26L301.936 113.956L308.271 119.266L317.976 108.921L321.107 111.866L308.629 125.18Z" fill="#455A64"/>
<path d="M240.274 185.363L228.651 177.58C224.784 176.666 220.442 179.443 219.637 183.342C215.795 182.536 211.718 185.235 210.398 188.937C209.078 192.639 210.231 196.956 212.782 199.95C215.334 202.944 219.092 204.714 222.944 205.481C228.484 206.582 234.96 205.368 238.282 200.786C241.408 196.489 240.917 190.643 240.274 185.363Z" fill="#263238"/>
<path d="M290.102 176.528C290.058 174.555 289.468 172.632 288.397 170.976C287.326 169.319 285.816 167.994 284.037 167.147C285.367 162.496 286.829 157.614 285.803 152.89C283.483 142.211 273.88 140.746 269.052 140.815L253.184 150.972C248.935 155.795 254.268 182.275 256.182 188.416C257.177 191.485 258.927 194.253 261.272 196.465C263.617 198.677 266.48 200.261 269.597 201.071C274.013 202.177 279.106 201.474 282.491 198.397C285.877 195.319 286.952 189.655 284.204 185.997C285.965 185.12 287.449 183.771 288.49 182.099C289.531 180.427 290.089 178.499 290.102 176.528Z" fill="#263238"/>
<path d="M208.612 220.939L210.084 286.126L296.799 286.465C296.799 286.465 290.362 194.96 288.512 194.065C287.113 193.401 269.979 187.767 269.979 187.767L262.359 185.545L230.868 191.602L219.446 194.104L208.612 220.939Z" fill="#455A64"/>
<path d="M213.636 210.049C213.636 209.877 221.919 193.559 221.919 193.559C213.803 194.414 206.556 197.285 201.845 203.475C199.652 206.356 198.671 210.722 197.577 213.834C196.841 215.943 191.983 244.316 191.983 244.316L211.222 252.203L213.636 210.049Z" fill="#455A64"/>
<path d="M244.2 233.918L226.045 191.966C219.431 193.441 211.997 195.122 207.257 198.18L209.765 229.016L209.397 286.465L244.136 286.647L246.275 245.767L244.2 233.918Z" fill="#0A3323"/>
<path d="M290.47 244.607L286.731 192.792L265.661 186.032L244.146 233.564V286.647L297.319 286.47L290.47 244.607Z" fill="#0A3323"/>
<path d="M290.474 244.606C290.474 244.606 290.524 244.857 290.607 245.344C290.69 245.831 290.813 246.563 290.975 247.507C291.294 249.415 291.76 252.222 292.364 255.836C293.556 263.068 295.283 273.535 297.413 286.456V286.564H297.344L244.17 286.77H244.048V286.647C244.048 273.648 244.048 259.494 244.048 244.808V233.52C251.8 216.41 259.096 200.309 265.578 185.992L265.622 185.904L265.715 185.933L286.76 192.713H286.824V192.782C287.952 208.652 288.87 221.607 289.508 230.594C289.822 235.088 290.067 238.589 290.229 240.968C290.313 242.153 290.371 243.063 290.411 243.677C290.45 244.292 290.465 244.602 290.465 244.602C290.465 244.602 290.43 244.292 290.381 243.682C290.332 243.073 290.264 242.158 290.175 240.973C289.994 238.594 289.734 235.098 289.4 230.609C288.738 221.617 287.791 208.667 286.623 192.797L286.691 192.885L265.622 186.135L265.76 186.076C259.283 200.393 252.021 216.499 244.259 233.613V233.559V244.828C244.259 259.513 244.259 273.668 244.259 286.667L244.136 286.544L297.309 286.397L297.216 286.505C295.121 273.574 293.423 263.107 292.246 255.865C291.667 252.252 291.215 249.444 290.906 247.537C290.759 246.588 290.646 245.86 290.568 245.369C290.489 244.877 290.474 244.606 290.474 244.606Z" fill="#263238"/>
<path d="M284.739 243.245H210.079V253.024H284.739V243.245Z" fill="white"/>
<path d="M287.094 193.534C287.094 193.534 291.947 193.475 298.978 206.135C306.873 220.349 311.917 238.387 311.917 238.387L292.481 249.017L287.094 193.534Z" fill="#455A64"/>
<path d="M214.372 194.984L216.487 286.47L224.799 286.515L221.919 192.836C221.919 192.836 215.677 194.306 214.372 194.984Z" fill="white"/>
<path d="M273.277 188.475L270.73 286.515H281.598L282.109 191.425L273.277 188.475Z" fill="white"/>
<g opacity="0.3">
<path d="M250.981 214.655C251.186 216.585 251.834 218.442 252.876 220.079C253.917 221.716 255.322 223.089 256.982 224.09C258.567 225.029 260.372 225.619 261.761 226.833C263.149 228.048 263.925 229.631 264.705 231.224C270.593 243.048 276.481 254.902 281.039 267.311C282.055 270.084 283.002 272.916 284.645 275.384C286.289 277.852 288.679 279.951 291.579 280.512C294.478 281.072 297.835 279.735 298.988 277.016L262.32 208.446L250.981 214.655Z" fill="black"/>
</g>
<path d="M244.146 233.564C244.146 233.564 244.146 233.889 244.146 234.547C244.146 235.206 244.146 236.13 244.146 237.365C244.146 239.823 244.146 243.466 244.175 248.092C244.175 257.36 244.205 270.629 244.224 286.667V286.775H244.116L209.318 286.588H209.196V286.461C209.259 276.136 209.328 265.01 209.397 253.52C209.451 245 209.505 236.686 209.559 228.702C208.695 217.885 207.876 207.649 207.105 198.22V198.121L207.164 198.082C210.246 196.194 213.543 195.034 216.732 194.06C219.922 193.087 223.057 192.384 226.055 191.71H226.138L226.168 191.789L239.293 222.271C240.844 225.894 242.056 228.716 242.875 230.629L243.802 232.812C244.013 233.304 244.111 233.559 244.111 233.559C244.111 233.559 243.994 233.308 243.773 232.817L242.88 230.644L239.244 222.286L226.045 191.838L226.158 191.897C223.17 192.57 220.054 193.303 216.865 194.257C213.675 195.211 210.398 196.391 207.351 198.269L207.405 198.161C208.165 207.595 208.994 217.826 209.858 228.643C209.809 236.632 209.755 244.941 209.701 253.461C209.627 264.966 209.554 276.077 209.49 286.402L209.367 286.279L244.16 286.5L244.053 286.603C244.053 270.566 244.087 257.296 244.102 248.028C244.102 243.407 244.102 239.779 244.131 237.306C244.131 236.076 244.131 235.132 244.131 234.488C244.131 233.844 244.146 233.564 244.146 233.564Z" fill="#263238"/>
<path d="M214.421 138.873C213.846 137.96 213.518 136.912 213.469 135.833C213.42 134.755 213.652 133.682 214.143 132.72C214.634 131.759 215.366 130.942 216.267 130.35C217.168 129.758 218.208 129.412 219.284 129.344L229.097 130.78L226.241 147.393C225.972 148.981 225.648 150.667 224.549 151.842C223.995 152.37 223.341 152.78 222.625 153.047C221.909 153.314 221.146 153.432 220.383 153.396C218.709 153.384 217.076 152.877 215.688 151.938C214.301 151 213.221 149.671 212.584 148.12C211.947 146.569 211.782 144.863 212.109 143.218C212.436 141.573 213.24 140.061 214.421 138.873Z" fill="#263238"/>
<path d="M244.146 202.713C252.34 202.713 261.201 194.045 261.363 185.835L262.237 140.839C262.919 127.565 255.78 116.119 242.527 115.805L241.3 115.849C235.348 116.055 229.692 118.499 225.457 122.694C221.222 126.889 218.719 132.528 218.445 138.489C217.92 149.989 218.371 160.377 218.661 166.513C219.259 179.247 231.128 181.263 231.128 181.263C231.128 181.263 230.108 192.472 231.855 195.776C235.78 203.18 238.881 202.546 244.146 202.659V202.713Z" fill="#FFBF9D"/>
<path d="M231.03 181.307C231.03 181.307 239.063 181.503 247.414 175.83C247.414 175.83 243.621 185.476 230.898 184.768L231.03 181.307Z" fill="#FF9A6C"/>
<path d="M224.274 148.701C224.287 149.175 224.483 149.626 224.822 149.957C225.161 150.289 225.616 150.474 226.089 150.476C226.321 150.485 226.552 150.449 226.769 150.368C226.987 150.287 227.186 150.164 227.355 150.005C227.524 149.846 227.66 149.655 227.754 149.443C227.849 149.231 227.9 149.002 227.905 148.77C227.892 148.295 227.695 147.845 227.356 147.513C227.017 147.182 226.563 146.996 226.089 146.995C225.858 146.984 225.626 147.02 225.408 147.101C225.191 147.181 224.991 147.305 224.822 147.464C224.653 147.623 224.517 147.814 224.423 148.027C224.329 148.239 224.278 148.468 224.274 148.701Z" fill="#263238"/>
<path d="M221.595 143.425C221.825 143.651 223.165 142.585 225.118 142.521C227.071 142.457 228.552 143.391 228.744 143.14C228.842 143.032 228.597 142.614 227.959 142.157C227.093 141.601 226.077 141.326 225.049 141.37C224.033 141.401 223.053 141.756 222.252 142.383C221.668 142.884 221.477 143.322 221.595 143.425Z" fill="#263238"/>
<path d="M242.06 148.701C242.072 149.175 242.268 149.625 242.606 149.957C242.944 150.288 243.398 150.474 243.871 150.476C244.103 150.486 244.334 150.45 244.552 150.37C244.769 150.289 244.969 150.165 245.138 150.006C245.307 149.847 245.443 149.656 245.537 149.444C245.631 149.231 245.682 149.002 245.686 148.77C245.676 148.292 245.479 147.838 245.138 147.505C244.796 147.172 244.338 146.987 243.861 146.99C243.63 146.981 243.4 147.019 243.184 147.101C242.967 147.183 242.77 147.307 242.602 147.466C242.434 147.625 242.3 147.817 242.207 148.029C242.114 148.241 242.064 148.469 242.06 148.701Z" fill="#263238"/>
<path d="M240.755 143.548C240.991 143.774 242.33 142.708 244.283 142.644C246.236 142.58 247.718 143.514 247.909 143.263C248.007 143.155 247.767 142.732 247.124 142.28C246.259 141.722 245.242 141.447 244.214 141.493C243.197 141.524 242.216 141.879 241.413 142.506C240.834 143.012 240.642 143.45 240.755 143.548Z" fill="#263238"/>
<path d="M234.269 158.834C234.269 158.725 233.052 158.558 231.074 158.371C230.584 158.337 230.093 158.253 230.005 157.919C229.917 157.585 230.064 157.015 230.284 156.444C230.713 155.218 231.161 153.932 231.629 152.585C233.489 147.098 234.818 142.59 234.597 142.516C234.377 142.442 232.689 146.832 230.829 152.324C230.383 153.676 229.951 154.969 229.548 156.203C229.377 156.774 229.058 157.432 229.357 158.17C229.435 158.344 229.551 158.498 229.698 158.62C229.844 158.741 230.016 158.828 230.201 158.873C230.481 158.94 230.768 158.97 231.055 158.961C233.037 158.981 234.264 158.947 234.269 158.834Z" fill="#263238"/>
<path d="M236.065 165.977C236.518 166.421 237.128 166.668 237.762 166.666C238.432 166.65 239.07 166.373 239.538 165.894C240.382 165.117 240.544 163.858 240.382 162.781C240.357 162.597 240.29 162.42 240.186 162.265C240.181 162.166 240.161 162.068 240.127 161.975C240.015 161.686 239.844 161.423 239.627 161.203C239.409 160.982 239.149 160.808 238.861 160.692C238.271 160.462 237.621 160.431 237.012 160.603C236.511 160.773 236.067 161.08 235.731 161.489C235.396 161.898 235.181 162.394 235.113 162.919C235.023 163.468 235.062 164.03 235.228 164.561C235.393 165.092 235.679 165.577 236.065 165.977Z" fill="#FF9A6C"/>
<path d="M240.706 160.579C240.402 160.49 239.911 162.546 237.797 163.607C235.682 164.669 233.538 163.912 233.454 164.197C233.395 164.32 233.847 164.714 234.774 164.96C235.98 165.26 237.252 165.128 238.371 164.586C239.443 164.061 240.27 163.139 240.677 162.015C240.961 161.169 240.849 160.604 240.706 160.579Z" fill="#263238"/>
<path d="M240.255 136.788C240.466 137.314 242.404 136.995 244.71 137.191C247.016 137.388 248.886 137.953 249.17 137.462C249.303 137.231 248.959 136.739 248.189 136.252C247.169 135.658 246.027 135.305 244.85 135.22C243.673 135.135 242.493 135.32 241.398 135.761C240.569 136.11 240.162 136.542 240.255 136.788Z" fill="#263238"/>
<path d="M222.11 136.173C222.468 136.606 223.798 136.095 225.417 136.021C227.036 135.947 228.415 136.213 228.714 135.736C228.847 135.51 228.616 135.067 228.003 134.669C227.18 134.193 226.236 133.973 225.288 134.035C224.341 134.097 223.433 134.439 222.679 135.018C222.125 135.515 221.953 135.982 222.11 136.173Z" fill="#263238"/>
<path d="M261.775 150.048C261.986 149.949 270.421 147.157 270.446 155.874C270.47 164.591 261.726 162.821 261.712 162.57C261.697 162.319 261.775 150.048 261.775 150.048Z" fill="#FFBF9D"/>
<path d="M264.361 159.281C264.396 159.251 264.513 159.384 264.769 159.502C265.132 159.649 265.538 159.649 265.902 159.502C266.819 159.163 267.59 157.698 267.629 156.125C267.647 155.377 267.5 154.635 267.197 153.952C267.114 153.68 266.967 153.433 266.768 153.231C266.569 153.029 266.324 152.878 266.054 152.791C265.88 152.744 265.695 152.761 265.531 152.837C265.368 152.913 265.237 153.045 265.161 153.209C265.043 153.455 265.102 153.627 265.053 153.642C265.004 153.657 264.867 153.494 264.935 153.15C264.983 152.934 265.105 152.741 265.279 152.604C265.396 152.514 265.53 152.447 265.673 152.408C265.817 152.369 265.966 152.359 266.113 152.378C266.471 152.448 266.805 152.609 267.083 152.844C267.361 153.08 267.575 153.383 267.703 153.725C268.076 154.479 268.258 155.313 268.233 156.154C268.184 157.914 267.291 159.556 266.034 159.925C265.801 159.994 265.555 160.01 265.314 159.971C265.074 159.932 264.845 159.839 264.646 159.699C264.376 159.468 264.332 159.281 264.361 159.281Z" fill="#FF9A6C"/>
<path d="M250.937 129.29C251.967 128.263 253.464 127.889 254.901 127.717C258.676 127.267 262.502 127.889 265.941 129.512C267.732 130.362 269.459 131.542 270.426 133.278C271.393 135.013 271.407 137.388 270.043 138.828C271.333 139.587 272.3 140.793 272.76 142.219C273.22 143.645 273.141 145.19 272.539 146.562C271.936 147.933 270.852 149.035 269.492 149.658C268.131 150.281 266.59 150.381 265.161 149.94C265.095 150.607 264.862 151.246 264.483 151.798C264.103 152.351 263.591 152.798 262.993 153.098C262.394 153.398 261.73 153.541 261.061 153.514C260.393 153.487 259.742 153.291 259.17 152.944C258.573 152.563 258.044 152.084 257.605 151.528C255.941 149.389 255.775 145.333 256.231 142.678C255.358 142.645 254.504 142.415 253.732 142.005C252.961 141.594 252.292 141.014 251.776 140.308C250.754 138.885 250.082 137.242 249.813 135.51C249.381 133.327 249.396 130.834 250.937 129.29Z" fill="#263238"/>
<path d="M254.101 106.212C254.695 106.335 268.964 110.578 271.868 121.635C274.773 132.693 273.493 135.942 273.493 135.942C274.032 136.34 274.512 136.812 274.92 137.344C275.475 138.096 274.366 141.444 272.501 140.933C258.763 133.715 242.08 131.965 223.361 131.301L209.083 130.171C205.054 130.372 203.72 129.212 205.471 128.317C206.816 127.634 218.474 123.823 218.474 123.823L220.815 122.348L227.257 114.541C227.257 114.541 226.604 113.351 228.111 112.501C229.617 111.65 242.389 103.779 254.101 106.212Z" fill="#0A3323"/>
<g opacity="0.3">
<path d="M266.923 113.469C266.923 113.469 251.476 109.9 244.264 112.801L245.103 112.447L238.302 114.905C237.154 115.323 235.814 115.721 234.774 115.082C234.774 115.082 238.513 112.132 245.191 110.362C251.869 108.592 262.291 108.336 266.923 113.469Z" fill="black"/>
</g>
<path d="M267.129 113.558C266.709 113.197 266.263 112.868 265.794 112.574C264.521 111.725 263.152 111.028 261.717 110.5C259.588 109.711 257.357 109.237 255.093 109.094C252.315 108.843 249.516 109.192 246.884 110.116C245.54 110.632 244.229 111.23 242.958 111.906C241.732 112.56 240.505 113.125 239.421 113.784C238.417 114.445 237.36 115.021 236.261 115.505C235.287 115.875 234.241 116.015 233.204 115.913C229.362 115.711 227.061 114.762 227.247 114.526C227.3 114.667 227.403 114.783 227.537 114.851C227.898 115.064 228.286 115.229 228.69 115.342C230.159 115.762 231.669 116.015 233.194 116.1C234.257 116.215 235.332 116.08 236.334 115.706C237.448 115.228 238.519 114.654 239.534 113.99C240.623 113.346 241.84 112.781 243.066 112.132C244.326 111.462 245.626 110.869 246.957 110.357C249.555 109.431 252.321 109.072 255.068 109.305C257.315 109.431 259.531 109.884 261.648 110.647C263.078 111.158 264.447 111.826 265.73 112.638C266.187 112.923 266.53 113.164 266.761 113.332C266.991 113.499 267.129 113.558 267.129 113.558Z" fill="#263238"/>
<g opacity="0.3">
<path d="M272.928 126.242C270.132 126.036 268.056 125.166 265.318 124.374C262.374 123.528 259.499 122.82 256.628 121.837C254.445 121.09 251.854 120.362 250.51 118.676C250.364 119.217 250.361 119.786 250.499 120.328C250.637 120.871 250.913 121.369 251.3 121.773C252.095 122.648 254.788 123.804 255.907 124.192C262.286 126.395 266.702 127.879 273.39 128.794C273.292 127.934 273.138 127.082 272.928 126.242Z" fill="black"/>
</g>
<path d="M271.496 120.441C273.218 121.331 274.273 121.916 274.224 123.44C274.184 124.703 273.826 126.227 272.575 126.365C272.189 126.382 271.803 126.327 271.437 126.203L252.374 121.021C251.709 120.917 251.1 120.585 250.652 120.082C250.073 119.231 250.613 117.983 251.501 117.461C252.389 116.94 253.464 116.97 254.499 116.999C260.333 117.279 265.946 118.622 271.496 120.441Z" fill="#0A3323"/>
<path d="M250.932 120.362C250.688 120.123 250.518 119.82 250.441 119.487C250.365 119.039 250.413 118.579 250.582 118.157C250.751 117.735 251.034 117.368 251.398 117.098C252.379 116.449 253.822 116.311 255.323 116.493C256.825 116.675 258.567 116.896 260.338 117.186C263.367 117.655 266.349 118.392 269.248 119.389C270.357 119.777 271.211 120.151 271.839 120.406L272.536 120.711C272.613 120.753 272.696 120.785 272.781 120.805C272.712 120.751 272.636 120.707 272.555 120.672L271.878 120.323C271.285 120.038 270.406 119.639 269.307 119.226C266.412 118.178 263.421 117.416 260.377 116.95C258.596 116.655 256.898 116.458 255.343 116.272C253.787 116.085 252.291 116.272 251.28 116.96C250.895 117.249 250.601 117.642 250.433 118.094C250.265 118.546 250.231 119.036 250.333 119.507C250.395 119.758 250.514 119.992 250.682 120.19C250.853 120.318 250.927 120.372 250.932 120.362Z" fill="#263238"/>
<path d="M225.236 116.984L237.409 117.54L236.158 120.903L222.959 119.748L225.236 116.984Z" fill="white"/>
<path d="M242.909 129.015C242.909 128.946 237.556 127.816 230.922 126.478C224.289 125.141 218.896 124.118 218.881 124.182C218.867 124.246 224.235 125.382 230.873 126.719C237.512 128.056 242.88 129.079 242.909 129.015Z" fill="#263238"/>
<path d="M227.478 191.966L230.912 185.751L244.146 202.713L262.59 179.901L265.289 186.858L250.981 211.937L244.911 203.692L243.469 203.903L238.464 212.62L227.478 191.966Z" fill="#E0E0E0"/>
<path d="M256.094 204.4C255.981 204.62 255.849 204.83 255.701 205.029C255.436 205.427 255.053 206.012 254.597 206.73C253.395 208.636 252.324 210.622 251.393 212.674L251.295 212.885L251.167 212.689L250.789 212.089C249.229 209.734 247.639 207.718 246.57 206.189C246.025 205.437 245.588 204.817 245.323 204.38C245.164 204.161 245.026 203.927 244.911 203.682C245.09 203.882 245.254 204.096 245.402 204.321L246.712 206.086C247.821 207.561 249.435 209.567 251 211.941C251.133 212.148 251.265 212.35 251.383 212.541H251.162C252.096 210.479 253.196 208.496 254.45 206.612C254.94 205.894 255.333 205.329 255.622 204.95C255.764 204.754 255.921 204.57 256.094 204.4Z" fill="#263238"/>
<path d="M271.054 140.338C271.189 140.443 271.307 140.569 271.402 140.711C271.689 141.081 271.932 141.484 272.124 141.911C272.791 143.333 272.947 144.942 272.564 146.466C272.181 147.99 271.284 149.334 270.024 150.269C269.652 150.552 269.249 150.789 268.821 150.977C268.668 151.059 268.502 151.115 268.331 151.144C268.879 150.842 269.405 150.502 269.906 150.126C271.091 149.187 271.934 147.882 272.304 146.413C272.674 144.945 272.55 143.395 271.952 142.004C271.693 141.428 271.393 140.871 271.054 140.338Z" fill="#455A64"/>
<path d="M243.469 203.903C243.469 203.903 243.469 203.967 243.405 204.08L243.184 204.572C242.983 205.009 242.693 205.643 242.271 206.435C241.159 208.585 239.921 210.666 238.562 212.669L238.464 212.871L238.371 212.699L235.324 207.05C233.184 203.048 231.251 199.424 229.838 196.764C229.156 195.466 228.602 194.399 228.199 193.637L227.767 192.777C227.713 192.68 227.667 192.578 227.63 192.472C227.7 192.559 227.761 192.653 227.812 192.752L228.302 193.588L230.01 196.681L235.52 206.907C236.59 208.913 237.615 210.84 238.547 212.566H238.346C239.711 210.576 240.972 208.516 242.124 206.396L243.106 204.567L243.361 204.075C243.389 204.013 243.425 203.955 243.469 203.903Z" fill="#263238"/>
<path d="M192.41 232.763L185.349 253.038L174.77 240.708L160.698 249.464L178.603 273.461C183.45 280.384 191.448 282.557 195.82 281.51C204.731 279.381 209.475 267.822 209.475 267.822L209.421 256.75L207.522 240.329L192.41 232.763Z" fill="#455A64"/>
<path d="M192.675 211.937C192.675 211.937 219.863 241.534 225.442 246.957C228.101 249.543 233.724 253.014 233.724 253.014L225.294 253.997L192.675 211.937Z" fill="#E0E0E0"/>
<g opacity="0.3">
<path d="M184.491 256.136C184.491 256.136 195.639 258.736 203.244 259.154C210.849 259.572 230.721 259.444 230.721 259.444L226.796 256.077L184.491 256.136Z" fill="black"/>
</g>
<path d="M190.81 208.121L142.068 206.927L184.471 256.15L229.46 257.38L190.81 208.121Z" fill="#263238"/>
<path d="M169.81 226.411C169.812 226.095 169.749 225.783 169.624 225.494C169.499 225.204 169.316 224.944 169.085 224.73C168.854 224.515 168.581 224.352 168.283 224.249C167.986 224.147 167.67 224.108 167.356 224.134C166.64 224.188 165.703 224.277 164.55 224.434C161.576 224.832 152.862 229.483 152.686 231.253C152.425 233.849 153.765 234.803 153.765 234.803C153.765 234.803 152.111 237.153 152.813 239.031C153.412 240.639 156.027 241.111 156.027 241.111C156.027 241.111 154.177 243.422 156.218 244.956C156.93 245.487 158.353 246.504 158.672 246.853C158.814 247.331 159.011 247.789 159.26 248.22C159.72 248.822 160.304 249.318 160.972 249.674C161.64 250.029 162.377 250.236 163.132 250.28L163.623 250.31C164.582 250.366 165.528 250.059 166.272 249.449C169.643 246.681 179.172 238.682 179.299 236.548C179.299 236.548 181.115 235.029 180.325 233.53C179.535 232.03 176.782 232.787 176.782 232.787C177.155 232.47 177.416 232.042 177.528 231.565C177.639 231.087 177.594 230.587 177.4 230.137C176.704 228.559 171.772 228.864 169.55 229.233C167.774 229.523 162.818 230.501 162.818 230.501C162.818 230.501 169.373 228.004 169.726 226.858C169.772 226.713 169.8 226.563 169.81 226.411Z" fill="#FFBF9D"/>
<path d="M179.319 236.548C179.111 236.708 178.892 236.851 178.661 236.976C178.235 237.237 177.602 237.601 176.807 238.023C175.227 238.879 172.984 239.96 170.457 241.032C167.931 242.104 165.605 242.999 163.912 243.584C163.068 243.884 162.381 244.12 161.9 244.272C161.658 244.369 161.406 244.441 161.15 244.489C161.382 244.368 161.623 244.266 161.871 244.184L163.833 243.417C165.512 242.773 167.823 241.878 170.345 240.806C172.867 239.734 175.109 238.682 176.723 237.856C177.523 237.453 178.166 237.114 178.612 236.873C178.838 236.745 179.075 236.636 179.319 236.548Z" fill="#FF9A6C"/>
<path d="M177.131 232.719C176.895 232.797 176.654 232.856 176.409 232.896C175.948 233.004 175.271 233.151 174.447 233.387C172.798 233.805 170.551 234.513 168.097 235.378C166.871 235.811 165.688 236.199 164.663 236.607C163.637 237.016 162.7 237.428 161.915 237.787C161.13 238.146 160.531 238.466 160.109 238.682C159.896 238.81 159.673 238.92 159.442 239.012C159.488 238.966 159.539 238.927 159.594 238.894C159.697 238.825 159.854 238.722 160.06 238.599C160.472 238.353 161.076 238.014 161.841 237.615C162.607 237.217 163.529 236.804 164.579 236.381C165.629 235.958 166.807 235.565 168.014 235.128C170.104 234.372 172.233 233.731 174.393 233.205C175.227 233.009 175.909 232.886 176.38 232.807C176.627 232.754 176.878 232.724 177.131 232.719Z" fill="#FF9A6C"/>
<path d="M162.823 230.501C162.498 230.741 162.147 230.944 161.778 231.106C161.11 231.445 160.173 231.873 159.143 232.34C158.112 232.807 157.18 233.259 156.523 233.598C156.176 233.804 155.814 233.98 155.438 234.125C155.736 233.859 156.066 233.631 156.42 233.446C157.263 232.958 158.131 232.515 159.02 232.119C160.055 231.627 160.983 231.243 161.68 230.949C162.045 230.762 162.428 230.612 162.823 230.501Z" fill="#FF9A6C"/>
<path d="M176.326 240.541C176.198 240.733 176.05 240.911 175.884 241.072C175.585 241.406 175.138 241.873 174.569 242.428C173.436 243.554 171.768 244.995 169.977 246.632C169.53 247.04 169.108 247.463 168.667 247.837C168.241 248.196 167.798 248.532 167.337 248.844C166.558 249.378 165.7 249.786 164.795 250.054C164.186 250.237 163.551 250.317 162.916 250.29C162.751 250.284 162.587 250.266 162.425 250.236C162.308 250.216 162.249 250.201 162.249 250.192C162.249 250.167 162.499 250.192 162.94 250.192C163.562 250.184 164.18 250.081 164.771 249.887C165.644 249.598 166.471 249.182 167.224 248.653C167.672 248.347 168.104 248.019 168.519 247.669C168.951 247.301 169.368 246.878 169.82 246.465C171.615 244.823 173.298 243.407 174.461 242.32C175.045 241.779 175.506 241.337 175.825 241.022C175.978 240.847 176.145 240.686 176.326 240.541Z" fill="#FF9A6C"/>
<path d="M176.841 206.42L155.443 206.15C155.339 206.135 155.234 206.155 155.142 206.205C155.05 206.255 154.976 206.333 154.932 206.428C154.887 206.523 154.874 206.63 154.895 206.733C154.915 206.836 154.968 206.93 155.046 207L159.707 212.467L180.806 213.107C180.904 213.117 181.002 213.097 181.089 213.051C181.176 213.004 181.247 212.932 181.292 212.845C181.338 212.757 181.356 212.658 181.344 212.56C181.333 212.462 181.292 212.37 181.228 212.295L177.234 206.636C177.19 206.572 177.132 206.518 177.063 206.481C176.995 206.443 176.919 206.422 176.841 206.42Z" fill="#E0E0E0"/>
<path d="M159.599 212.699L154.869 207.153C154.774 207.044 154.712 206.909 154.692 206.765C154.672 206.622 154.694 206.475 154.755 206.344C154.816 206.213 154.915 206.102 155.038 206.026C155.161 205.949 155.303 205.91 155.448 205.914L176.841 206.184C176.959 206.185 177.076 206.214 177.18 206.269C177.285 206.324 177.376 206.402 177.445 206.499L181.439 212.158C181.518 212.27 181.564 212.403 181.574 212.54C181.583 212.677 181.554 212.814 181.491 212.937C181.428 213.059 181.332 213.161 181.215 213.233C181.097 213.305 180.963 213.342 180.825 213.343L159.599 212.699ZM176.856 206.656L155.463 206.386C155.409 206.385 155.356 206.4 155.311 206.429C155.265 206.457 155.229 206.498 155.206 206.547C155.183 206.596 155.175 206.65 155.182 206.704C155.19 206.757 155.212 206.807 155.247 206.848L159.839 212.231L180.85 212.871C180.9 212.871 180.95 212.857 180.993 212.83C181.035 212.803 181.069 212.764 181.09 212.718C181.118 212.675 181.132 212.625 181.132 212.573C181.132 212.522 181.118 212.471 181.09 212.428L177.101 206.774C177.073 206.736 177.036 206.705 176.993 206.684C176.95 206.664 176.903 206.654 176.856 206.656Z" fill="#263238"/>
<path d="M194.902 266.913C194.971 265.988 194.982 265.061 194.937 264.135C194.775 261.898 194.018 259.745 192.744 257.901C191.47 256.057 189.727 254.588 187.695 253.648C186.846 253.274 185.974 252.957 185.084 252.699C185.149 252.691 185.215 252.691 185.28 252.699C185.403 252.724 185.59 252.743 185.825 252.807C186.498 252.965 187.155 253.184 187.788 253.461C189.881 254.373 191.679 255.852 192.979 257.731C194.279 259.611 195.03 261.817 195.148 264.1C195.189 264.786 195.166 265.474 195.079 266.156C195.058 266.341 195.026 266.524 194.986 266.706C194.968 266.779 194.94 266.848 194.902 266.913Z" fill="#263238"/>
<path d="M267.443 227.561C267.443 227.561 278.12 254.056 282.962 263.614C287.982 273.52 295.435 290.118 310.381 281.441C322.603 274.341 311.529 237.06 311.529 237.06L300.528 242.04L284.258 215.953L267.443 227.561Z" fill="#455A64"/>
<path d="M273.728 184.906C273.666 184.717 273.565 184.544 273.432 184.398C273.298 184.251 273.135 184.135 272.953 184.057C272.771 183.979 272.574 183.94 272.376 183.944C272.178 183.948 271.983 183.994 271.805 184.08C270.671 184.616 269.003 185.899 268.61 188.829C267.997 193.367 268.841 196.573 267.781 197.757C266.721 198.942 253.405 199.891 252.374 201.838C251.344 203.785 251.967 205.412 251.923 206.371C251.905 206.715 251.762 207.04 251.52 207.286C250.917 207.905 249.896 209.301 250.873 210.988C250.996 211.194 251.065 211.429 251.075 211.669C251.084 211.91 251.033 212.149 250.927 212.364C250.534 213.151 250.225 214.513 251.599 215.919C251.73 216.048 251.835 216.202 251.908 216.371C252.31 217.305 253.871 220.624 256.084 221.288C257.749 221.738 259.474 221.926 261.196 221.843C261.545 221.832 261.885 221.953 262.148 222.182C263.272 223.166 267.001 225.55 268.105 226.996C268.105 226.996 281.844 217.369 282.712 216.917C282.712 216.917 276.52 207.448 276.206 203.107C275.877 198.475 272.968 193.082 273.753 188.741C274.091 186.858 273.973 185.658 273.728 184.906Z" fill="#FFBF9D"/>
<path d="M267.443 227.561C267.443 227.561 267.443 227.537 267.516 227.497L267.747 227.32L268.664 226.666L272.124 224.238L284.189 215.855L284.287 215.786L284.356 215.889C286.127 218.618 288.046 221.617 290.023 224.739L301.603 243.353C303.075 245.718 304.292 247.635 305.136 248.972L306.117 250.506L306.362 250.905C306.392 250.949 306.417 250.997 306.436 251.047C306.402 251.006 306.371 250.964 306.343 250.919L306.078 250.531C305.837 250.177 305.504 249.671 305.096 249.026C304.238 247.719 303.001 245.816 301.495 243.451C298.472 238.731 294.405 232.143 289.851 224.896C287.889 221.755 285.96 218.751 284.199 216.017L284.366 216.052L272.251 224.36L268.753 226.73L267.816 227.355L267.57 227.512L267.443 227.561Z" fill="#263238"/>
<path d="M313.183 255.944C313.078 255.807 312.989 255.658 312.918 255.501C312.736 255.157 312.52 254.749 312.27 254.267C311.589 252.9 310.766 251.609 309.817 250.413C308.85 249.233 307.624 248.292 306.235 247.665C305.647 247.436 305.044 247.252 304.429 247.114C304.601 247.094 304.775 247.102 304.944 247.139C305.409 247.207 305.865 247.328 306.303 247.497C307.747 248.09 309.021 249.035 310.008 250.246C310.984 251.45 311.808 252.772 312.461 254.179C312.716 254.71 312.908 255.162 313.035 255.452C313.107 255.609 313.157 255.774 313.183 255.944Z" fill="#263238"/>
<defs>
<linearGradient id="paint0_linear_61_1341" x1="171.12" y1="0" x2="171.12" y2="303.968" gradientUnits="userSpaceOnUse">
<stop stop-color="#DAD3C8"/>
<stop offset="1" stop-color="white" stop-opacity="0"/>
</linearGradient>
</defs>
</svg>
