<svg width="312" height="312" viewBox="0 0 312 312" fill="none" xmlns="http://www.w3.org/2000/svg">
<circle cx="156.5" cy="148.5" r="148.5" fill="url(#paint0_linear_61_1877)"/>
<path d="M276.449 84.7435C289.835 71.3578 289.835 49.6552 276.449 36.2695C263.064 22.8837 241.361 22.8837 227.975 36.2695C214.59 49.6552 214.59 71.3578 227.975 84.7435C241.361 98.1292 263.064 98.1292 276.449 84.7435Z" fill="#FAFAFA"/>
<path d="M252.72 95.2661C245.984 95.3644 239.364 93.5034 233.667 89.9094C227.969 86.3154 223.438 81.1432 220.625 75.0219C217.812 68.9005 216.838 62.0937 217.822 55.4292C218.806 48.7648 221.705 42.5298 226.167 37.4825C230.629 32.4352 236.461 28.7931 242.955 26.9991C249.448 25.205 256.323 25.3364 262.743 27.3771C269.163 29.4179 274.852 33.2801 279.118 38.4942C283.384 43.7082 286.043 50.0494 286.772 56.7466C287.757 65.9113 285.067 75.0926 279.292 82.2765C273.516 89.4603 265.127 94.06 255.965 95.0664C254.885 95.185 253.799 95.2474 252.72 95.2661ZM251.715 26.7135C250.673 26.7135 249.625 26.7946 248.564 26.9131C239.807 27.8811 231.777 32.2364 226.19 39.0478C220.602 45.8592 217.901 54.5862 218.664 63.363C219.427 72.1399 223.593 80.2701 230.272 86.0154C236.95 91.7608 245.612 94.6654 254.404 94.1082C263.196 93.5511 271.422 89.5764 277.322 83.034C283.222 76.4916 286.328 67.9006 285.977 59.0976C285.626 50.2947 281.845 41.9785 275.443 35.9268C269.04 29.8752 260.524 26.5684 251.715 26.7135Z" fill="#E0E0E0"/>
<path d="M268.083 56.316C267.87 56.0046 267.587 55.7476 267.256 55.5656C266.926 55.3837 266.557 55.282 266.18 55.2686C265.803 55.2553 265.428 55.3307 265.085 55.4887C264.743 55.6468 264.442 55.8832 264.208 56.1787C263.747 56.9133 263.404 57.7155 263.191 58.5562C262.567 60.6403 261.986 62.7494 261.369 64.8398C261.3 65.0645 261.038 65.233 260.863 65.4264C260.72 65.2142 260.483 65.0146 260.445 64.8024C260.262 63.6168 260.11 62.427 259.99 61.2331C259.734 58.8931 259.509 56.5469 259.259 54.2069C258.835 50.2694 258.411 46.3382 257.955 42.407C257.894 41.9599 257.705 41.5397 257.412 41.1965C257.073 40.849 256.631 40.6193 256.152 40.5407C255.673 40.4621 255.181 40.5388 254.748 40.7597C254.347 40.9686 254.021 41.2972 253.815 41.6997C253.61 42.1022 253.534 42.5588 253.6 43.0061C254.049 47.1661 254.5 51.3386 254.954 55.5235C255.006 55.7145 255.019 55.914 254.991 56.1101C254.941 56.2661 254.767 56.4782 254.623 56.4907C254.48 56.5032 254.267 56.341 254.186 56.1974C254.116 56.0146 254.084 55.8191 254.093 55.6234C253.564 50.777 253.036 45.9285 252.508 41.0779C252.485 40.774 252.443 40.4718 252.383 40.1731C252.336 39.7872 252.158 39.4292 251.878 39.1588C251.599 38.8885 251.235 38.7223 250.848 38.688C249.051 38.4134 247.871 39.5304 248.071 41.34C248.583 46.124 249.101 50.908 249.625 55.692C249.676 55.9697 249.692 56.2526 249.675 56.5344C249.657 56.6199 249.618 56.6994 249.561 56.7659C249.504 56.8324 249.432 56.8836 249.35 56.915C249.261 56.9109 249.173 56.8848 249.096 56.8391C249.019 56.7934 248.954 56.7295 248.907 56.653C248.826 56.4047 248.78 56.1464 248.77 55.8854C248.352 52.0541 247.953 48.229 247.522 44.4038C247.423 43.8539 247.118 43.3622 246.67 43.0285C246.221 42.6948 245.663 42.5441 245.107 42.6067C244.552 42.6694 244.041 42.9409 243.679 43.3661C243.316 43.7913 243.128 44.3385 243.154 44.8968C243.585 48.9653 244.034 53.0088 244.471 57.096C244.528 57.3285 244.549 57.5684 244.533 57.8074C244.449 58.0319 244.331 58.2423 244.184 58.4314C244.009 58.2504 243.697 58.0944 243.672 57.8947C243.485 56.4221 243.354 54.937 243.198 53.4643C243.029 51.8981 242.873 50.3443 242.68 48.7656C242.643 48.4806 242.548 48.2064 242.399 47.9602C242.251 47.714 242.054 47.5012 241.819 47.3352C241.585 47.1693 241.318 47.0538 241.037 46.996C240.755 46.9382 240.465 46.9395 240.184 46.9997C239.922 47.0204 239.666 47.0953 239.434 47.2197C239.203 47.344 238.999 47.5151 238.837 47.7221C238.674 47.929 238.556 48.1675 238.491 48.4223C238.425 48.6771 238.413 48.9427 238.455 49.2024C238.701 52.2725 238.946 55.3446 239.192 58.4189C239.391 60.2909 239.572 62.1629 239.697 64.0349C239.842 67.786 240.726 71.4717 242.299 74.88C242.991 76.4144 244.055 77.7521 245.394 78.772C246.733 79.7918 248.305 80.4616 249.968 80.7206C253.669 81.3404 257.467 80.5138 260.576 78.4118C262.759 77.0921 264.34 74.9716 264.982 72.5026C266.155 67.7414 267.228 62.9491 268.289 58.1506C268.433 57.5335 268.36 56.8857 268.083 56.316Z" fill="#E0E0E0"/>
<path d="M278.223 144.263L273.418 139.458L278.223 134.653L275.465 131.895L270.654 136.7L265.849 131.895L263.091 134.653L267.896 139.458L263.091 144.263L265.849 147.027L270.654 142.222L275.465 147.027L278.223 144.263Z" fill="#E0E0E0"/>
<path d="M159.051 41.0217L154.122 36.0859L159.051 31.15L156.218 28.3171L151.282 33.2529L146.347 28.3171L143.514 31.15L148.45 36.0859L143.514 41.0217L146.347 43.8547L151.282 38.9188L156.218 43.8547L159.051 41.0217Z" fill="#E0E0E0"/>
<path d="M68.6961 149.123L62.1628 144.125L67.1611 137.592L63.4046 134.722L58.4064 141.255L51.8731 136.257L49.0027 140.013L55.536 145.005L50.5377 151.545L54.2942 154.415L59.2924 147.882L65.8257 152.88L68.6961 149.123Z" fill="#EBEBEB"/>
<path d="M123.427 104.127L113.137 91.5845C116.656 82.8188 116.768 73.0541 113.453 64.2098C110.137 55.3655 103.633 48.0814 95.2186 43.7895C86.8046 39.4975 77.0895 38.5081 67.983 41.0158C58.8765 43.5234 51.0374 49.3468 46.0067 57.3411C40.9761 65.3353 39.1177 74.9223 40.7969 84.2172C42.4761 93.5122 47.5715 101.843 55.0814 107.572C62.5912 113.3 71.9724 116.013 81.3806 115.175C90.7889 114.338 99.5437 110.012 105.924 103.047L123.427 104.127Z" fill="#FAFAFA"/>
<path d="M123.427 104.127L105.912 103.147H105.787L105.843 103.035L105.974 103.129C103.926 105.365 101.622 107.353 99.1099 109.051C96.1185 111.059 92.8552 112.628 89.4192 113.712C87.512 114.308 85.5613 114.754 83.5848 115.047C81.4893 115.366 79.3703 115.504 77.2512 115.459C69.7481 115.296 62.4619 112.912 56.3148 108.606C50.1678 104.301 45.4362 98.2685 42.719 91.2728C40.6953 85.9844 39.8602 80.3154 40.273 74.6681C40.7308 68.7743 42.5646 63.0701 45.6269 58.0136C47.1823 55.4075 49.0562 53.0053 51.2054 50.8625C53.3038 48.7333 55.6526 46.8664 58.2005 45.3027C60.6807 43.7732 63.3295 42.5357 66.0941 41.6148C68.7934 40.7248 71.5831 40.1367 74.412 39.8614C79.8404 39.3099 85.3238 39.9487 90.48 41.7334C97.062 44.0043 102.888 48.051 107.314 53.4261C111.74 58.8012 114.593 65.2954 115.559 72.1908C116.074 75.7561 116.074 79.3771 115.559 82.9424C115.118 85.9071 114.33 88.8099 113.212 91.591V91.5099C119.802 99.6219 123.09 103.672 123.446 104.102L113.094 91.6222L113.063 91.5848V91.5411C114.16 88.7697 114.931 85.8798 115.359 82.9299C115.871 79.3831 115.871 75.7813 115.359 72.2345C114.369 65.3947 111.516 58.9589 107.114 53.6311C102.712 48.3034 96.9294 44.2888 90.3989 42.0267C85.2859 40.2514 79.8472 39.6125 74.4619 40.1547C71.6564 40.4289 68.8897 41.0127 66.2126 41.8956C63.4657 42.8076 60.8336 44.0347 58.369 45.5523C55.8509 47.0966 53.5293 48.9404 51.455 51.0435C50.4012 52.1063 49.4075 53.2271 48.4786 54.4006C47.5546 55.5985 46.7004 56.8486 45.9202 58.1446C42.8864 63.1583 41.0699 68.8132 40.6162 74.6556C40.2061 80.2616 41.0392 85.8889 43.056 91.1355C45.7447 98.0816 50.4339 104.074 56.5299 108.354C62.6259 112.634 69.8547 115.009 77.3011 115.178C79.4074 115.227 81.514 115.093 83.5973 114.779C89.1224 113.985 94.3996 111.964 99.0413 108.863C101.551 107.183 103.854 105.214 105.905 102.998L106.33 102.542L106.036 103.085L105.968 102.967L123.427 104.127Z" fill="#263238"/>
<path d="M88.9574 84.5769L81.9499 77.5694L88.9574 70.5681L84.9326 66.5433L77.9251 73.5446L70.9239 66.5433L66.899 70.5681L73.9003 77.5694L66.899 84.5769L70.9239 88.6017L77.9251 81.5942L84.9326 88.6017L88.9574 84.5769Z" fill="#22634A"/>
<path d="M207.393 143.483C212.878 146.478 220.079 143.32 223.667 138.21C227.255 133.099 228.141 126.628 228.927 120.432C229.942 112.436 230.957 104.445 231.972 96.4579C232.858 89.4379 234.468 83.6722 232.172 75.3355C229.513 65.6698 217.233 62.9429 217.233 62.9429C217.233 62.9429 211.811 57.9509 208.678 55.8792C203.511 52.4722 198.226 51.7233 192.679 52.5096C184.122 53.8 175.983 57.062 168.904 62.0381C164.729 64.9784 159.734 66.5305 154.627 66.4747C154.02 66.4749 153.413 66.4352 152.811 66.3561C149.361 65.8694 142.827 63.6355 141.118 68.0285C139.408 72.4214 144.862 80.2526 144.862 80.2526C144.862 80.2526 138.753 78.6926 138.434 83.7034C138.116 88.7141 144.999 100.807 156.998 100.951" fill="#22634A"/>
<g opacity="0.3">
<path d="M207.393 143.483C212.878 146.478 220.079 143.32 223.667 138.21C227.255 133.099 228.141 126.628 228.927 120.432C229.942 112.436 230.957 104.445 231.972 96.4579C232.858 89.4379 234.468 83.6722 232.172 75.3355C229.513 65.6698 217.233 62.9429 217.233 62.9429C217.233 62.9429 211.811 57.9509 208.678 55.8792C203.511 52.4722 198.226 51.7233 192.679 52.5096C184.122 53.8 175.983 57.062 168.904 62.0381C164.729 64.9784 159.734 66.5305 154.627 66.4747C154.02 66.4749 153.413 66.4352 152.811 66.3561C149.361 65.8694 142.827 63.6355 141.118 68.0285C139.408 72.4214 144.862 80.2526 144.862 80.2526C144.862 80.2526 138.753 78.6926 138.434 83.7034C138.116 88.7141 144.999 100.807 156.998 100.951" fill="black"/>
</g>
<path d="M282.397 198.176C278.098 181.846 263.16 177.441 263.16 177.441V177.484C249.531 172.056 241.788 171.575 222.475 166.121L223.723 99.9773C224.677 78.9423 213.221 60.865 192.192 60.528L190.245 60.6091C180.792 60.9907 171.83 64.9185 165.143 71.6103C158.456 78.3021 154.534 87.2671 154.159 96.72C153.442 114.96 152.911 135.127 153.41 144.88C154.49 165.054 174.814 167.344 174.814 167.344C174.814 167.65 174.814 169.054 174.776 171.126C173.865 171.126 162.964 172.598 151.314 174.97C143.951 172.729 122.167 166.858 108.258 171.057C96.0211 171.681 64.5778 173.915 43.499 181.391C31.824 185.515 19.344 195.181 19.344 209.464C19.344 222.912 35.6117 226.581 52.0229 227.629C63.648 228.372 83.928 226.737 94.7856 225.72L134.946 246.642L137.991 262.136L140.487 294.285L253.731 294.122H291.708C291.708 294.122 286.691 214.506 282.397 198.176Z" fill="#22634A"/>
<g opacity="0.3">
<path d="M174.814 167.338C174.814 167.338 187.568 167.556 200.772 158.477C200.772 158.477 194.975 173.453 174.757 172.442L174.814 167.338Z" fill="black"/>
</g>
<g opacity="0.3">
<path d="M161.616 112.32C161.637 113.073 161.953 113.788 162.496 114.311C163.038 114.833 163.764 115.122 164.518 115.116C164.885 115.129 165.252 115.069 165.596 114.938C165.94 114.808 166.255 114.611 166.522 114.357C166.788 114.104 167.002 113.8 167.149 113.463C167.297 113.126 167.376 112.763 167.382 112.395C167.357 111.643 167.041 110.93 166.499 110.408C165.957 109.886 165.233 109.596 164.48 109.599C164.112 109.584 163.745 109.643 163.4 109.773C163.055 109.902 162.74 110.1 162.472 110.354C162.205 110.607 161.992 110.912 161.845 111.25C161.698 111.588 161.62 111.952 161.616 112.32Z" fill="black"/>
<path d="M158.814 106.23C159.189 106.592 161.31 104.882 164.43 104.763C167.55 104.645 169.872 106.099 170.19 105.706C170.346 105.531 169.953 104.869 168.942 104.189C167.565 103.304 165.947 102.868 164.312 102.941C162.697 103.002 161.143 103.575 159.875 104.576C158.927 105.375 158.633 106.08 158.814 106.23Z" fill="black"/>
<path d="M189.159 112.32C189.184 113.072 189.501 113.785 190.042 114.307C190.584 114.829 191.309 115.119 192.061 115.116C192.429 115.129 192.795 115.069 193.139 114.938C193.484 114.808 193.798 114.611 194.065 114.357C194.332 114.104 194.545 113.8 194.693 113.463C194.841 113.126 194.92 112.763 194.925 112.395C194.901 111.644 194.585 110.932 194.044 110.41C193.504 109.888 192.781 109.597 192.03 109.599C191.661 109.584 191.294 109.643 190.949 109.773C190.603 109.902 190.288 110.1 190.02 110.353C189.752 110.607 189.538 110.912 189.39 111.25C189.243 111.587 189.164 111.951 189.159 112.32Z" fill="black"/>
<path d="M188.685 105.737C189.059 106.099 191.181 104.395 194.301 104.277C197.421 104.158 199.742 105.612 200.061 105.219C200.217 105.044 199.83 104.376 198.813 103.696C197.434 102.814 195.817 102.379 194.183 102.448C192.567 102.507 191.013 103.08 189.746 104.083C188.804 104.882 188.504 105.581 188.685 105.737Z" fill="black"/>
<path d="M179.088 129.212C179.088 129.031 177.154 128.781 174.009 128.506C173.216 128.463 172.461 128.332 172.305 127.801C172.149 127.271 172.392 126.366 172.736 125.43C173.405 123.483 174.102 121.441 174.826 119.302C177.728 110.566 179.818 103.422 179.437 103.303C179.057 103.185 176.448 110.167 173.553 118.903L171.6 125.05C171.338 125.967 170.864 127.009 171.319 128.17C171.444 128.446 171.632 128.689 171.867 128.881C172.102 129.072 172.378 129.207 172.673 129.274C173.115 129.377 173.568 129.421 174.021 129.405C177.154 129.455 179.088 129.386 179.088 129.212Z" fill="black"/>
<path d="M182.277 142.141C182.782 142.191 182.901 138.827 185.902 136.525C188.904 134.222 192.448 134.765 192.492 134.297C192.548 134.085 191.718 133.611 190.208 133.505C188.236 133.4 186.29 133.992 184.71 135.177C183.196 136.318 182.185 138.003 181.89 139.876C181.703 141.305 182.046 142.153 182.277 142.141Z" fill="black"/>
<path d="M201.633 94.9915C201.009 94.3675 198.345 95.9899 194.844 97.0881C191.343 98.1864 188.248 98.4984 188.124 99.3907C188.074 99.8088 188.872 100.32 190.289 100.576C192.146 100.837 194.038 100.671 195.821 100.091C197.604 99.51 199.231 98.53 200.579 97.2254C201.552 96.1833 201.914 95.2972 201.633 94.9915Z" fill="black"/>
<path d="M169.578 98.592C169.297 97.7433 167.039 97.7308 164.586 96.9134C162.134 96.096 160.262 94.8916 159.544 95.422C159.22 95.6904 159.307 96.4704 159.987 97.4126C160.929 98.5897 162.2 99.4607 163.637 99.915C165.075 100.369 166.615 100.387 168.062 99.9648C169.173 99.5716 169.728 98.9851 169.578 98.592Z" fill="black"/>
</g>
<path d="M222.706 114.997C223.043 114.835 236.434 110.317 236.54 124.139C236.646 137.96 222.768 135.24 222.768 134.84C222.768 134.441 222.706 114.997 222.706 114.997Z" fill="#22634A"/>
<g opacity="0.3">
<path d="M226.911 129.567C226.968 129.524 227.155 129.73 227.535 129.917C228.114 130.147 228.76 130.147 229.339 129.917C230.793 129.368 231.997 127.04 232.041 124.544C232.066 123.36 231.825 122.185 231.336 121.106C230.905 120.101 230.243 119.396 229.507 119.278C229.23 119.211 228.938 119.242 228.68 119.364C228.422 119.487 228.214 119.694 228.091 119.951C227.91 120.338 228.003 120.613 227.928 120.638C227.854 120.663 227.629 120.407 227.735 119.833C227.809 119.491 227.999 119.185 228.272 118.966C228.649 118.673 229.127 118.541 229.601 118.597C230.668 118.666 231.635 119.633 232.134 120.719C232.735 121.91 233.035 123.229 233.008 124.563C232.945 127.346 231.541 129.967 229.551 130.566C229.18 130.677 228.789 130.704 228.407 130.643C228.024 130.583 227.66 130.437 227.342 130.216C226.936 129.898 226.861 129.592 226.911 129.567Z" fill="black"/>
</g>
<path d="M152.487 89.1322C158.852 94.3301 171.007 89.7562 178.782 87.0792C186.557 84.4023 192.223 78.7176 199.867 75.7099C201.868 74.8258 204.02 74.3324 206.207 74.256C208.391 74.256 210.662 75.0859 211.985 76.8207C213.445 78.7301 213.514 81.3821 212.971 83.7221C212.428 86.0621 211.336 88.2399 210.662 90.5424C209.414 94.7731 209.602 99.2784 209.795 103.684C210.07 109.886 210.419 116.345 213.452 121.78C214.65 123.914 217.046 126.048 219.28 125.043C221.832 123.895 221.345 120.195 222.281 117.555C223.217 114.916 225.869 113.144 227.392 110.729C228.914 108.314 229.264 105.206 229.339 102.286C229.601 92.7015 227.854 82.9421 223.223 74.5368C218.593 66.1315 210.912 59.2114 201.664 56.6031C192.067 53.8824 181.428 56.0103 173.01 61.3704C164.592 66.7306 158.34 75.0984 154.559 84.3274" fill="#22634A"/>
<g opacity="0.3">
<path d="M152.487 89.1322C158.852 94.3301 171.007 89.7562 178.782 87.0792C186.557 84.4023 192.223 78.7176 199.867 75.7099C201.868 74.8258 204.02 74.3324 206.207 74.256C208.391 74.256 210.662 75.0859 211.985 76.8207C213.445 78.7301 213.514 81.3821 212.971 83.7221C212.428 86.0621 211.336 88.2399 210.662 90.5424C209.414 94.7731 209.602 99.2784 209.795 103.684C210.07 109.886 210.419 116.345 213.452 121.78C214.65 123.914 217.046 126.048 219.28 125.043C221.832 123.895 221.345 120.195 222.281 117.555C223.217 114.916 225.869 113.144 227.392 110.729C228.914 108.314 229.264 105.206 229.339 102.286C229.601 92.7015 227.854 82.9421 223.223 74.5368C218.593 66.1315 210.912 59.2114 201.664 56.6031C192.067 53.8824 181.428 56.0103 173.01 61.3704C164.592 66.7306 158.34 75.0984 154.559 84.3274" fill="black"/>
</g>
<g opacity="0.3">
<path d="M247.535 294.665C247.447 294.665 246.474 281.699 245.363 265.693C244.252 249.687 243.429 236.708 243.491 236.702C243.553 236.696 244.558 249.662 245.663 265.674C246.767 281.686 247.628 294.659 247.535 294.665Z" fill="black"/>
</g>
<g opacity="0.3">
<path d="M260.264 185.858C260.168 185.946 260.064 186.023 259.952 186.089L259.016 186.713L258.342 187.15C258.099 187.319 257.849 187.518 257.575 187.724C256.945 188.177 256.338 188.662 255.759 189.178L254.742 190.077C254.392 190.395 254.068 190.763 253.706 191.119C252.951 191.89 252.237 192.701 251.566 193.546C248.474 197.437 246.297 201.973 245.195 206.819C244.957 207.873 244.774 208.94 244.645 210.013C244.589 210.513 244.508 210.999 244.477 211.467C244.446 211.935 244.433 212.391 244.415 212.821C244.374 213.599 244.374 214.378 244.415 215.155C244.415 215.498 244.415 215.817 244.446 216.11C244.477 216.403 244.502 216.665 244.527 216.909C244.571 217.364 244.608 217.732 244.633 218.019C244.648 218.15 244.648 218.282 244.633 218.412C244.597 218.288 244.572 218.161 244.558 218.032L244.39 216.921C244.352 216.678 244.315 216.409 244.277 216.122C244.24 215.835 244.24 215.498 244.221 215.161C244.156 214.381 244.138 213.598 244.165 212.815C244.165 212.378 244.196 211.923 244.209 211.449C244.221 210.974 244.308 210.488 244.358 209.976C244.478 208.894 244.653 207.82 244.883 206.756C245.965 201.855 248.164 197.27 251.31 193.359C251.994 192.511 252.723 191.701 253.494 190.932C253.862 190.576 254.193 190.208 254.555 189.896L255.59 189.003C256.188 188.493 256.813 188.016 257.462 187.574C257.743 187.381 257.999 187.181 258.249 187.025L258.96 186.576L259.927 186.014C260.033 185.949 260.146 185.897 260.264 185.858Z" fill="black"/>
</g>
<path d="M100.851 130.372C93.7185 134.915 90.8669 144.425 92.2334 150.041C92.9198 152.874 94.2053 155.725 93.6437 158.583C93.1569 161.079 91.3785 163.032 90.0494 165.173C85.619 172.305 86.399 182.283 91.9214 188.635C97.4438 194.988 107.184 197.196 114.878 193.833" fill="#263238"/>
<path d="M96.6326 167.488C79.2792 129.33 120.551 110.161 143.064 116.52C164.224 122.497 173.254 133.031 176.76 147.183C180.267 161.335 180.074 176.679 174.527 190.164C171.793 196.81 166.864 203.568 159.719 204.397" fill="#263238"/>
<path d="M65.1955 274.816C59.3736 271.222 55.3363 262.835 56.2598 256.832C57.1833 250.829 60.2284 244.845 65.5137 241.856C69.0768 239.834 73.6694 239.067 75.922 235.647C77.9188 232.627 77.3385 228.552 78.8236 225.252C80.028 222.587 82.5052 220.671 85.1947 219.523C87.8841 218.375 90.8107 217.926 93.6998 217.476L112.295 214.594C114.348 214.275 116.663 214.013 118.317 215.274C119.97 216.534 120.345 218.856 120.557 220.94C122.055 235.422 122.653 249.983 122.348 264.539" fill="#263238"/>
<path d="M116.788 246.599C116.488 228.372 116.445 217.52 116.438 217.626C116.438 217.626 100.77 215.024 97.5187 194.582C95.9087 184.411 96.4204 167.75 97.2753 154.116C98.0491 141.848 106.174 126.797 118.398 128.089L156.562 137.736C158.352 137.926 160.006 138.781 161.198 140.131C162.389 141.482 163.03 143.23 162.995 145.03L160.624 235.367" fill="#FFBE9D"/>
<path d="M111.964 167.538C111.634 167.201 109.668 168.698 106.848 168.723C104.027 168.748 101.937 167.363 101.637 167.712C101.487 167.868 101.824 168.48 102.735 169.129C103.964 169.966 105.423 170.402 106.91 170.377C108.378 170.366 109.804 169.885 110.978 169.004C111.84 168.312 112.127 167.688 111.964 167.538Z" fill="#263238"/>
<path d="M139.682 166.427C139.333 166.115 137.467 167.731 134.653 167.943C131.839 168.156 129.661 166.908 129.393 167.276C129.255 167.438 129.63 168.031 130.578 168.617C131.863 169.365 133.347 169.698 134.828 169.572C136.29 169.464 137.68 168.894 138.796 167.943C139.607 167.232 139.857 166.571 139.682 166.427Z" fill="#263238"/>
<path d="M118.385 184.236C118.385 184.074 116.644 183.774 113.805 183.412C113.081 183.337 112.401 183.194 112.283 182.701C112.164 182.208 112.414 181.403 112.763 180.567C113.437 178.82 114.146 176.991 114.891 175.082C117.849 167.269 119.995 160.842 119.677 160.73C119.359 160.618 116.707 166.851 113.749 174.658L111.696 180.18C111.421 180.997 110.953 181.927 111.322 183.007C111.427 183.261 111.588 183.488 111.793 183.67C111.999 183.853 112.243 183.987 112.507 184.061C112.914 184.171 113.334 184.227 113.755 184.23C116.601 184.386 118.379 184.398 118.385 184.236Z" fill="#263238"/>
<path d="M116.438 217.626C126.066 217.772 135.545 215.242 143.819 210.319C143.819 210.319 136.899 224.546 116.438 222.631V217.626Z" fill="#EB996E"/>
<path d="M119.583 191.038C120.122 190.365 120.822 189.841 121.619 189.513C122.416 189.186 123.283 189.066 124.139 189.166C124.762 189.222 125.367 189.403 125.918 189.699C126.469 189.995 126.955 190.4 127.346 190.888C127.723 191.358 127.947 191.933 127.987 192.534C128.027 193.136 127.882 193.735 127.571 194.251C126.803 195.318 125.212 195.568 123.87 195.187C122.538 194.713 121.313 193.982 120.264 193.034C119.944 192.81 119.67 192.527 119.459 192.198C119.355 192.043 119.299 191.861 119.299 191.674C119.299 191.487 119.355 191.305 119.459 191.15" fill="#EB996E"/>
<path d="M120.295 196.248C120.731 196.392 121.505 193.428 124.588 191.974C127.67 190.52 130.74 191.668 130.871 191.256C130.959 191.081 130.316 190.501 128.999 190.12C127.268 189.646 125.425 189.798 123.795 190.551C122.234 191.275 121.015 192.577 120.395 194.183C119.945 195.393 120.089 196.217 120.295 196.248Z" fill="#263238"/>
<path d="M127.358 158.371C127.639 159.139 130.478 158.777 133.761 159.176C137.043 159.575 139.751 160.474 140.188 159.8C140.387 159.469 139.919 158.752 138.84 158.009C137.401 157.096 135.773 156.524 134.079 156.337C132.385 156.15 130.671 156.353 129.068 156.93C127.851 157.404 127.24 158.009 127.358 158.371Z" fill="#263238"/>
<path d="M110.273 156.137C109.649 155.626 107.902 156.711 105.631 157.273C103.359 157.835 101.331 157.828 101.038 158.583C100.919 158.945 101.369 159.501 102.348 159.894C103.643 160.346 105.044 160.4 106.37 160.048C107.696 159.697 108.886 158.956 109.787 157.922C110.448 157.098 110.56 156.393 110.273 156.137Z" fill="#263238"/>
<path d="M159.488 171.818C159.788 171.675 170.433 166.97 170.558 179.207C170.683 191.443 158.365 189.072 158.34 188.698C158.315 188.323 159.488 171.818 159.488 171.818Z" fill="#FFBE9D"/>
<path d="M162.034 184.024C162.084 183.986 162.246 184.174 162.608 184.33C163.12 184.537 163.693 184.537 164.206 184.33C165.491 183.843 166.558 181.777 166.596 179.568C166.617 178.52 166.404 177.479 165.972 176.523C165.85 176.144 165.639 175.799 165.357 175.518C165.074 175.237 164.729 175.028 164.349 174.907C164.105 174.847 163.847 174.873 163.619 174.981C163.392 175.089 163.209 175.272 163.101 175.5C162.939 175.843 163.02 176.087 162.958 176.124C162.895 176.161 162.696 175.918 162.789 175.413C162.852 175.11 163.017 174.839 163.257 174.645C163.593 174.387 164.016 174.27 164.436 174.321C165.379 174.377 166.24 175.232 166.683 176.193C167.215 177.248 167.48 178.418 167.457 179.6C167.407 182.064 166.165 184.386 164.399 184.916C164.071 185.014 163.726 185.038 163.388 184.985C163.05 184.932 162.728 184.804 162.446 184.61C162.059 184.317 161.99 184.08 162.034 184.024Z" fill="#EB996E"/>
<path d="M114.323 121.93C107.509 125.449 104.707 139.402 107.528 146.509C110.348 153.616 117.936 157.117 125.424 158.758C132.912 160.399 140.256 160.593 147.638 158.54C148.15 163.532 151.133 168.605 155.95 169.915C162.327 171.65 168.755 165.809 170.177 159.351C171.6 152.892 169.472 146.247 167.369 139.976" fill="#263238"/>
<path d="M168.33 166.346C168.361 166.383 168.024 166.702 167.388 167.238C166.483 167.996 165.54 168.706 164.561 169.366C163.104 170.374 161.5 171.15 159.806 171.669C157.688 172.339 155.409 172.306 153.311 171.575C151.247 170.741 149.517 169.247 148.393 167.326C147.486 165.792 146.887 164.096 146.627 162.334C146.45 161.161 146.387 159.974 146.44 158.789C146.424 158.353 146.476 157.917 146.596 157.498C146.734 157.498 146.596 159.37 147.12 162.246C147.436 163.924 148.053 165.531 148.943 166.989C150.02 168.76 151.639 170.138 153.56 170.92C155.521 171.597 157.644 171.643 159.632 171.051C161.278 170.575 162.847 169.867 164.293 168.948C166.795 167.382 168.255 166.246 168.33 166.346Z" fill="#263238"/>
<path d="M141.436 169.765C140.812 171.095 140.107 172.642 140.256 174.096C140.287 174.561 140.447 175.009 140.718 175.388C140.854 175.576 141.033 175.728 141.241 175.831C141.449 175.935 141.678 175.986 141.91 175.98C142.283 175.912 142.62 175.714 142.862 175.422C143.103 175.13 143.235 174.762 143.233 174.383C143.202 173.625 142.988 172.887 142.609 172.23L141.436 169.765Z" fill="#455A64"/>
<path d="M139.739 169.765C139.476 170.166 139.131 170.506 138.728 170.764C137.787 171.439 136.701 171.881 135.557 172.056C134.412 172.231 133.243 172.132 132.144 171.769C131.691 171.647 131.266 171.435 130.896 171.145C130.896 171.095 131.396 171.35 132.219 171.575C133.294 171.863 134.417 171.925 135.517 171.757C136.617 171.588 137.67 171.193 138.609 170.595C139.314 170.109 139.695 169.728 139.739 169.765Z" fill="#EB996E"/>
<path d="M110.854 171.057C110.593 171.36 110.269 171.603 109.905 171.768C109.052 172.222 108.111 172.486 107.147 172.542C106.182 172.596 105.218 172.439 104.32 172.08C103.937 171.952 103.587 171.738 103.297 171.456C103.669 171.567 104.036 171.696 104.395 171.843C105.277 172.127 106.203 172.247 107.128 172.199C108.052 172.14 108.958 171.918 109.805 171.544C110.144 171.359 110.494 171.196 110.854 171.057Z" fill="#EB996E"/>
<path d="M212.934 242.917C212.728 238.499 209.701 234.599 205.989 232.197C202.276 229.794 197.914 228.646 193.627 227.548C196.572 221.851 194.551 214.094 189.209 210.55C186.32 208.634 182.638 207.823 180.342 205.221C178.533 203.168 177.902 200.292 177.977 197.552C178.052 194.813 178.738 192.136 179.263 189.44C181.108 179.921 180.85 170.114 178.508 160.705L177.172 166.115L174.052 174.439L169.148 191.499L161.66 195.331C161.26 202.195 161.504 209.683 161.104 216.547L174.614 223.23L174.757 223.523L212.934 242.917Z" fill="#263238"/>
<path d="M170.127 173.26C170.127 173.26 170.127 173.179 170.159 173.035C170.19 172.892 170.221 172.648 170.265 172.374C170.393 171.53 170.478 170.68 170.52 169.828C170.661 166.69 170.16 163.556 169.048 160.618C168.286 158.604 167.235 156.712 165.928 155.002C164.403 153.044 162.572 151.345 160.505 149.972C158.227 148.455 155.689 147.372 153.017 146.777C150.127 146.207 147.181 145.972 144.238 146.078C141.199 146.116 138.228 146.259 135.358 146.128C132.59 146.055 129.852 145.541 127.246 144.606C124.905 143.687 122.739 142.372 120.844 140.718C119.193 139.285 117.757 137.62 116.582 135.776C114.855 133.119 113.723 130.12 113.262 126.984L113.112 125.505C113.075 125.081 113.112 124.713 113.112 124.419C113.112 124.126 113.112 123.92 113.112 123.752C113.103 123.677 113.103 123.602 113.112 123.527C113.121 123.602 113.121 123.677 113.112 123.752C113.112 123.92 113.112 124.139 113.112 124.419C113.112 124.7 113.112 125.075 113.162 125.499C113.212 125.923 113.275 126.416 113.343 126.965C114.224 132.236 116.927 137.031 120.981 140.512C122.853 142.129 124.989 143.41 127.296 144.3C129.881 145.221 132.596 145.722 135.339 145.785C138.191 145.91 141.155 145.785 144.2 145.723C147.17 145.617 150.141 145.858 153.055 146.44C155.77 147.046 158.349 148.15 160.661 149.698C162.75 151.094 164.597 152.822 166.128 154.814C167.453 156.557 168.515 158.485 169.279 160.537C170.378 163.507 170.848 166.673 170.658 169.834C170.601 170.991 170.424 172.14 170.127 173.26Z" fill="#455A64"/>
<path d="M177.584 161.029C177.576 160.961 177.576 160.892 177.584 160.824C177.584 160.668 177.584 160.462 177.622 160.2C177.678 159.663 177.671 158.87 177.659 157.847C177.602 156.611 177.443 155.382 177.185 154.172C176.852 152.566 176.341 151.003 175.662 149.51C173.923 145.597 171.097 142.266 167.519 139.913C165.388 138.581 163.076 137.561 160.655 136.887C158.048 136.157 155.384 135.644 152.693 135.352C147.164 134.728 141.823 134.528 137.062 133.542C134.803 133.102 132.595 132.433 130.472 131.545C128.629 130.752 126.896 129.722 125.318 128.482C124.012 127.461 122.846 126.274 121.848 124.95C121.099 123.948 120.47 122.861 119.976 121.711C119.801 121.292 119.648 120.863 119.521 120.426C119.416 120.109 119.333 119.786 119.271 119.459C119.221 119.209 119.184 119.001 119.159 118.835C119.141 118.765 119.131 118.694 119.128 118.622C119.155 118.689 119.176 118.758 119.19 118.828C119.228 118.978 119.271 119.172 119.334 119.421C119.407 119.743 119.501 120.06 119.615 120.37C119.749 120.795 119.909 121.212 120.095 121.618C120.592 122.748 121.22 123.816 121.967 124.8C122.967 126.098 124.131 127.26 125.43 128.257C127.001 129.47 128.721 130.476 130.547 131.252C132.655 132.124 134.846 132.778 137.087 133.205C141.823 134.166 147.145 134.341 152.687 134.984C155.396 135.276 158.076 135.796 160.699 136.537C163.152 137.224 165.494 138.262 167.65 139.62C171.265 142.012 174.11 145.4 175.843 149.373C177.032 152.054 177.691 154.94 177.784 157.872C177.8 158.658 177.766 159.443 177.684 160.225C177.684 160.48 177.634 160.68 177.615 160.849C177.612 160.91 177.602 160.971 177.584 161.029Z" fill="#455A64"/>
<path d="M177.029 222.924C176.908 222.866 176.793 222.797 176.686 222.718C176.473 222.568 176.143 222.369 175.75 222.063C174.634 221.223 173.591 220.292 172.63 219.28C169.379 215.935 167.057 211.801 165.892 207.285C164.726 202.769 164.758 198.027 165.984 193.527C166.346 192.172 166.819 190.848 167.4 189.571C167.594 189.116 167.787 188.779 167.906 188.548C167.957 188.425 168.024 188.309 168.106 188.205C168.073 188.333 168.025 188.456 167.962 188.573C167.868 188.816 167.694 189.159 167.513 189.621C166.981 190.908 166.545 192.232 166.209 193.583C165.057 198.049 165.055 202.733 166.203 207.199C167.35 211.665 169.611 215.768 172.773 219.124C173.721 220.144 174.743 221.093 175.831 221.963C176.211 222.281 176.53 222.5 176.729 222.662C176.839 222.737 176.939 222.825 177.029 222.924Z" fill="#455A64"/>
<path d="M52.2662 253.968L52.1976 253.762C52.135 253.56 52.1055 253.349 52.1102 253.138C52.1245 252.721 52.2263 252.312 52.4091 251.936C52.5918 251.561 52.8514 251.229 53.171 250.96C53.6207 250.554 54.1853 250.297 54.7872 250.224C55.5116 250.155 56.2386 250.324 56.8589 250.705C57.572 251.134 58.1411 251.766 58.4938 252.52C58.8747 253.378 58.9517 254.34 58.7122 255.247C58.4555 256.24 57.9105 257.135 57.1459 257.818C56.3318 258.583 55.2826 259.049 54.1694 259.141C52.9438 259.188 51.7302 258.884 50.6721 258.263C49.6139 257.643 48.7554 256.733 48.1978 255.64C47.6297 254.42 47.3617 253.082 47.4159 251.737C47.4702 250.392 47.8452 249.08 48.5098 247.909C49.9708 245.42 52.203 243.475 54.8683 242.368C57.4952 241.287 60.2447 240.533 63.0552 240.121C65.7322 239.629 68.3592 239.079 70.4746 237.75C71.5111 237.125 72.4127 236.3 73.1266 235.323C73.7797 234.394 74.207 233.326 74.3746 232.203C74.5618 231.111 74.6117 230.031 74.7552 228.996C74.825 228.487 74.925 227.982 75.0547 227.485C75.1227 227.244 75.2039 227.007 75.2981 226.774C75.3792 226.543 75.4772 226.317 75.5914 226.1C75.9956 225.277 76.5332 224.526 77.1826 223.879C77.7527 223.301 78.3799 222.782 79.0546 222.331C80.1358 221.614 81.2829 221.002 82.4803 220.503C83.46 220.079 84.24 219.804 84.7642 219.611L85.3882 219.405C85.4562 219.377 85.5275 219.358 85.6003 219.349L85.4006 219.436L84.8078 219.673C84.2899 219.885 83.5162 220.178 82.549 220.615C81.369 221.135 80.239 221.762 79.1731 222.487C78.5106 222.937 77.8959 223.453 77.3386 224.029C76.7084 224.666 76.1896 225.404 75.8035 226.213C75.6971 226.414 75.6033 226.623 75.5227 226.837C75.4327 227.063 75.3556 227.294 75.2918 227.529C75.1678 228.016 75.074 228.51 75.011 229.008C74.8738 230.031 74.8301 231.117 74.6429 232.234C74.4859 233.4 74.0585 234.514 73.3949 235.485C72.6609 236.49 71.7339 237.339 70.668 237.981C68.4902 239.36 65.8258 239.922 63.1426 240.415C60.3575 240.825 57.6332 241.576 55.0306 242.649C52.4198 243.72 50.2292 245.612 48.7906 248.04C48.1455 249.165 47.7795 250.428 47.723 251.723C47.6665 253.018 47.9214 254.308 48.4661 255.484C48.995 256.529 49.8107 257.4 50.8176 257.997C51.8245 258.594 52.9808 258.891 54.1507 258.854C55.2071 258.77 56.2037 258.33 56.9774 257.606C57.7121 256.958 58.2377 256.107 58.4875 255.16C58.7239 254.305 58.6577 253.395 58.3003 252.583C57.9785 251.867 57.4506 251.263 56.784 250.848C56.2007 250.478 55.5132 250.308 54.8246 250.361C54.2481 250.428 53.7058 250.67 53.2709 251.054C52.9584 251.308 52.7014 251.624 52.5158 251.981C52.3301 252.338 52.2197 252.73 52.1914 253.132C52.1894 253.412 52.2145 253.692 52.2662 253.968Z" fill="#263238"/>
<path d="M189.609 224.472C189.609 224.472 189.815 224.702 190.233 225.096C190.878 225.66 191.644 226.068 192.473 226.287C193.064 226.454 193.674 226.544 194.289 226.556C195.021 226.556 195.75 226.453 196.454 226.25C197.26 226.018 198.014 225.635 198.675 225.121C199.409 224.531 200.012 223.796 200.448 222.961C201.433 221.022 201.668 218.787 201.109 216.684C200.427 214.284 198.885 212.218 196.778 210.881C195.655 210.145 194.429 209.58 193.14 209.202C191.779 208.851 190.391 208.609 188.991 208.478C187.506 208.353 186.064 207.915 184.76 207.193C183.457 206.332 182.508 205.029 182.089 203.524C181.658 202.048 181.556 200.495 181.79 198.975C182.02 197.52 182.368 196.086 182.832 194.688C183.722 192.062 184.292 189.338 184.529 186.576C184.718 184.076 184.614 181.563 184.217 179.088C183.886 176.956 183.331 174.865 182.564 172.848L182.314 172.155L182.027 171.494C181.84 171.057 181.653 170.633 181.472 170.246C181.047 169.453 180.71 168.673 180.286 168.006C179.862 167.338 179.519 166.683 179.113 166.134C178.707 165.585 178.395 165.048 178.033 164.617L177.116 163.451L176.392 162.639L175.956 162.134C175.901 162.079 175.853 162.019 175.812 161.953C175.812 161.953 175.874 162.003 175.98 162.109C176.087 162.215 176.249 162.39 176.442 162.596L177.191 163.388L178.133 164.543C178.501 164.967 178.845 165.485 179.244 166.046C179.643 166.608 180.024 167.232 180.442 167.918C180.86 168.605 181.228 169.372 181.659 170.165C181.846 170.577 182.033 171.001 182.227 171.413C182.327 171.631 182.42 171.856 182.52 172.074L182.782 172.773C183.568 174.813 184.138 176.93 184.486 179.088C184.894 181.574 185.008 184.1 184.823 186.613C184.595 189.386 184.031 192.12 183.144 194.757C182.696 196.143 182.356 197.561 182.127 199C181.9 200.474 182 201.98 182.42 203.412C182.814 204.841 183.711 206.08 184.947 206.9C186.212 207.601 187.612 208.027 189.053 208.148C190.468 208.285 191.87 208.533 193.247 208.89C194.564 209.278 195.815 209.86 196.959 210.619C199.125 212 200.703 214.134 201.39 216.609C201.955 218.775 201.697 221.074 200.666 223.061C200.205 223.921 199.567 224.674 198.794 225.27C198.109 225.795 197.329 226.183 196.498 226.412C195.776 226.612 195.031 226.709 194.282 226.699C193.648 226.677 193.02 226.577 192.41 226.4C191.574 226.165 190.805 225.738 190.164 225.152C189.997 225.004 189.845 224.841 189.708 224.665C189.67 224.603 189.637 224.539 189.609 224.472Z" fill="#263238"/>
<path d="M232.752 294.528C232.752 294.528 221.196 246.517 210.912 241.295C200.628 236.072 161.129 216.565 161.129 216.565C161.129 216.565 158.714 234.83 139.545 234.924C119.952 235.023 116.513 224.94 116.513 224.94C116.513 224.94 69.8318 243.853 65.52 248.751C59.0928 256.015 54.912 294.509 54.912 294.509H232.752" fill="#455A64"/>
<path d="M128.644 263.84C127.918 262.396 127.037 261.036 126.017 259.784C125.749 259.415 125.414 259.1 125.031 258.854C124.838 258.73 124.618 258.655 124.39 258.634C124.162 258.613 123.932 258.648 123.72 258.735C123.51 258.851 123.332 259.018 123.202 259.219C123.071 259.42 122.992 259.651 122.972 259.89C122.901 260.358 123.01 260.835 123.277 261.225C124.369 262.953 125.802 264.44 127.489 265.593C127.703 265.773 127.971 265.877 128.251 265.886C128.456 265.85 128.643 265.743 128.777 265.583C128.912 265.423 128.986 265.222 128.987 265.013C128.973 264.599 128.855 264.196 128.644 263.84Z" fill="white"/>
<path d="M157.023 283.003C156.296 281.56 155.415 280.2 154.396 278.947C154.125 278.581 153.791 278.267 153.41 278.017C153.217 277.88 152.99 277.798 152.754 277.78C152.517 277.762 152.281 277.809 152.069 277.915C151.857 278.022 151.679 278.184 151.552 278.384C151.426 278.585 151.356 278.816 151.351 279.053C151.283 279.522 151.392 280.001 151.657 280.394C152.75 282.121 154.183 283.608 155.869 284.762C156.083 284.943 156.351 285.046 156.63 285.056C156.836 285.019 157.022 284.912 157.157 284.752C157.291 284.593 157.365 284.391 157.367 284.182C157.352 283.767 157.234 283.361 157.023 283.003Z" fill="white"/>
<path d="M180.617 287.776C179.893 286.333 179.014 284.973 177.996 283.72C177.724 283.353 177.388 283.038 177.004 282.791C176.812 282.667 176.593 282.591 176.366 282.571C176.139 282.55 175.91 282.585 175.7 282.672C175.489 282.787 175.31 282.953 175.179 283.155C175.049 283.356 174.97 283.587 174.951 283.826C174.88 284.294 174.99 284.771 175.257 285.162C176.348 286.89 177.781 288.376 179.469 289.53C179.681 289.709 179.946 289.812 180.224 289.823C180.43 289.788 180.617 289.681 180.751 289.521C180.886 289.361 180.96 289.159 180.96 288.949C180.949 288.535 180.831 288.131 180.617 287.776Z" fill="white"/>
<path d="M202.8 278.928C202.079 277.483 201.2 276.123 200.179 274.872C199.909 274.503 199.572 274.188 199.187 273.942C198.995 273.818 198.777 273.743 198.55 273.722C198.322 273.702 198.094 273.736 197.883 273.824C197.672 273.939 197.493 274.105 197.363 274.306C197.232 274.508 197.153 274.739 197.134 274.978C197.064 275.446 197.173 275.923 197.44 276.313C198.531 278.042 199.964 279.528 201.652 280.681C201.864 280.86 202.13 280.964 202.407 280.975C202.613 280.939 202.8 280.832 202.935 280.672C203.069 280.513 203.143 280.31 203.143 280.101C203.132 279.687 203.014 279.283 202.8 278.928Z" fill="white"/>
<path d="M205.92 252.639C205.193 251.196 204.312 249.836 203.293 248.583C203.021 248.216 202.685 247.901 202.301 247.653C202.108 247.532 201.889 247.459 201.663 247.438C201.436 247.417 201.208 247.45 200.997 247.535C200.787 247.651 200.61 247.818 200.479 248.019C200.349 248.22 200.269 248.45 200.248 248.689C200.176 249.159 200.285 249.638 200.554 250.031C201.645 251.759 203.078 253.245 204.766 254.399C204.979 254.579 205.247 254.682 205.527 254.692C205.732 254.655 205.919 254.548 206.053 254.388C206.188 254.229 206.262 254.027 206.263 253.818C206.249 253.403 206.131 252.997 205.92 252.639Z" fill="white"/>
<path d="M224.172 281.848C223.449 280.404 222.568 279.043 221.545 277.792C221.277 277.424 220.942 277.109 220.559 276.863C220.366 276.739 220.146 276.663 219.918 276.643C219.69 276.622 219.46 276.657 219.249 276.744C219.039 276.86 218.862 277.027 218.733 277.228C218.603 277.43 218.525 277.66 218.506 277.898C218.434 278.365 218.541 278.842 218.806 279.234C219.899 280.96 221.332 282.446 223.018 283.602C223.231 283.782 223.499 283.885 223.779 283.895C223.985 283.86 224.172 283.753 224.307 283.593C224.441 283.433 224.515 283.231 224.515 283.021C224.504 282.607 224.386 282.203 224.172 281.848Z" fill="white"/>
<path d="M64.7962 286.416C64.0727 284.973 63.1939 283.613 62.1754 282.36C61.9039 281.991 61.5678 281.673 61.1832 281.424C60.9915 281.301 60.7732 281.225 60.5463 281.203C60.3194 281.182 60.0906 281.214 59.8791 281.299C59.6685 281.416 59.4901 281.583 59.3595 281.786C59.2289 281.988 59.1501 282.22 59.1303 282.46C59.0598 282.928 59.169 283.405 59.436 283.795C60.5254 285.525 61.9592 287.012 63.648 288.163C63.8577 288.347 64.1244 288.453 64.4031 288.463C64.6086 288.426 64.7948 288.319 64.9294 288.159C65.0639 288 65.1382 287.798 65.1394 287.589C65.1286 287.175 65.0103 286.771 64.7962 286.416Z" fill="white"/>
<path d="M71.76 265.955C71.0366 264.51 70.1556 263.15 69.1329 261.899C68.8648 261.531 68.5304 261.215 68.147 260.969C67.9553 260.846 67.7369 260.77 67.5101 260.749C67.2832 260.727 67.0544 260.76 66.8429 260.844C66.6328 260.96 66.4546 261.127 66.3239 261.328C66.1933 261.529 66.1144 261.76 66.0941 261.999C66.022 262.469 66.1313 262.948 66.3998 263.34C67.4892 265.068 68.9205 266.554 70.6056 267.708C70.8213 267.886 71.0878 267.991 71.3669 268.008C71.5719 267.97 71.7574 267.863 71.8917 267.703C72.0261 267.544 72.1008 267.343 72.1032 267.134C72.0943 266.718 71.976 266.311 71.76 265.955Z" fill="white"/>
<path d="M84.19 289.124C83.4667 287.679 82.5856 286.319 81.563 285.068C81.2948 284.7 80.9605 284.384 80.5771 284.138C80.3843 284.015 80.1648 283.939 79.9369 283.918C79.7091 283.896 79.4793 283.929 79.2667 284.014C79.058 284.132 78.8813 284.3 78.752 284.502C78.6226 284.704 78.5444 284.935 78.5241 285.174C78.4518 285.641 78.5588 286.118 78.8236 286.51C79.913 288.239 81.3468 289.726 83.0356 290.878C83.2514 291.055 83.5179 291.16 83.7969 291.177C84.0014 291.138 84.1863 291.03 84.3204 290.871C84.4545 290.712 84.5297 290.512 84.5332 290.303C84.5244 289.887 84.406 289.48 84.19 289.124Z" fill="white"/>
<path d="M84.552 248.545C83.827 247.103 82.9483 245.743 81.9312 244.489C81.659 244.122 81.3229 243.807 80.939 243.56C80.7464 243.422 80.5196 243.339 80.2835 243.321C80.0473 243.303 79.8106 243.35 79.5991 243.457C79.3877 243.563 79.2094 243.726 79.0837 243.927C78.958 244.127 78.8896 244.359 78.886 244.596C78.814 245.065 78.9233 245.545 79.1918 245.937C80.2846 247.664 81.7177 249.15 83.4038 250.305C83.6159 250.484 83.8816 250.587 84.1588 250.598C84.3649 250.563 84.5519 250.456 84.6866 250.296C84.8214 250.136 84.8952 249.934 84.8952 249.725C84.8846 249.309 84.7664 248.902 84.552 248.545Z" fill="white"/>
<path d="M105.743 290.054C105.02 288.609 104.139 287.249 103.116 285.998C102.848 285.63 102.514 285.314 102.13 285.068C101.938 284.945 101.72 284.869 101.493 284.847C101.266 284.826 101.038 284.859 100.826 284.943C100.615 285.06 100.437 285.228 100.306 285.43C100.176 285.632 100.097 285.864 100.077 286.104C100.007 286.572 100.116 287.049 100.383 287.439C101.472 289.169 102.906 290.656 104.595 291.807C104.808 291.986 105.073 292.091 105.35 292.107C105.555 292.069 105.741 291.961 105.875 291.802C106.009 291.643 106.084 291.442 106.086 291.233C106.077 290.817 105.959 290.41 105.743 290.054Z" fill="white"/>
<path d="M177.553 237.001C176.83 235.555 175.949 234.192 174.926 232.939C174.654 232.574 174.321 232.259 173.94 232.009C173.747 231.872 173.521 231.789 173.284 231.771C173.048 231.753 172.812 231.8 172.6 231.906C172.389 232.013 172.21 232.175 172.085 232.376C171.959 232.577 171.891 232.808 171.887 233.045C171.815 233.515 171.924 233.995 172.193 234.387C173.283 236.114 174.714 237.6 176.399 238.755C176.612 238.935 176.88 239.038 177.16 239.048C177.366 239.013 177.553 238.906 177.688 238.746C177.822 238.586 177.896 238.384 177.896 238.175C177.886 237.76 177.768 237.356 177.553 237.001Z" fill="white"/>
<path d="M170.246 269.568C169.526 268.123 168.647 266.762 167.625 265.512C167.347 265.14 167.002 264.822 166.608 264.576C166.415 264.455 166.197 264.381 165.97 264.361C165.743 264.34 165.515 264.373 165.304 264.457C165.094 264.574 164.917 264.741 164.786 264.942C164.656 265.143 164.576 265.373 164.555 265.612C164.483 266.082 164.592 266.561 164.861 266.953C165.952 268.682 167.385 270.168 169.073 271.321C169.285 271.5 169.551 271.604 169.828 271.615C170.033 271.581 170.22 271.475 170.355 271.316C170.49 271.157 170.564 270.956 170.564 270.747C170.563 270.333 170.453 269.927 170.246 269.568Z" fill="white"/>
<path d="M187.2 257.481C186.479 256.035 185.6 254.672 184.579 253.419C184.305 253.053 183.97 252.739 183.587 252.489C183.394 252.368 183.176 252.295 182.949 252.274C182.723 252.253 182.494 252.287 182.283 252.371C182.074 252.488 181.896 252.654 181.765 252.855C181.635 253.056 181.556 253.286 181.534 253.525C181.462 253.995 181.571 254.474 181.84 254.867C182.931 256.595 184.365 258.081 186.052 259.235C186.264 259.414 186.53 259.517 186.807 259.528C187.013 259.493 187.2 259.385 187.335 259.226C187.469 259.066 187.543 258.863 187.543 258.654C187.533 258.24 187.415 257.836 187.2 257.481Z" fill="white"/>
<path d="M149.797 260.27C149.074 258.826 148.193 257.465 147.17 256.214C146.901 255.847 146.567 255.532 146.185 255.285C145.992 255.161 145.772 255.085 145.544 255.065C145.316 255.044 145.086 255.079 144.874 255.166C144.665 255.282 144.488 255.449 144.358 255.65C144.229 255.851 144.151 256.082 144.132 256.32C144.057 256.788 144.166 257.267 144.437 257.656C145.527 259.383 146.958 260.87 148.643 262.024C148.857 262.204 149.125 262.307 149.404 262.317C149.61 262.282 149.797 262.175 149.932 262.015C150.067 261.855 150.141 261.653 150.141 261.443C150.129 261.029 150.011 260.625 149.797 260.27Z" fill="white"/>
<path d="M158.028 244.67C157.302 243.225 156.422 241.863 155.401 240.608C155.129 240.241 154.793 239.926 154.409 239.678C154.216 239.558 153.998 239.484 153.771 239.463C153.544 239.443 153.316 239.476 153.105 239.56C152.895 239.677 152.718 239.843 152.587 240.044C152.457 240.245 152.377 240.475 152.356 240.714C152.284 241.184 152.393 241.664 152.662 242.056C153.753 243.784 155.186 245.271 156.874 246.424C157.087 246.604 157.355 246.707 157.635 246.717C157.838 246.681 158.023 246.575 158.157 246.418C158.292 246.261 158.367 246.063 158.371 245.856C158.36 245.438 158.242 245.03 158.028 244.67Z" fill="white"/>
<path d="M130.316 244.258C129.593 242.812 128.712 241.449 127.689 240.196C127.418 239.831 127.084 239.516 126.703 239.266C126.511 239.129 126.284 239.046 126.048 239.028C125.812 239.01 125.575 239.057 125.363 239.163C125.152 239.27 124.974 239.433 124.848 239.633C124.722 239.834 124.654 240.065 124.65 240.302C124.576 240.771 124.683 241.251 124.95 241.644C126.043 243.371 127.476 244.857 129.162 246.012C129.376 246.192 129.644 246.295 129.923 246.305C130.129 246.27 130.316 246.163 130.451 246.003C130.586 245.843 130.659 245.641 130.659 245.432C130.649 245.017 130.531 244.613 130.316 244.258Z" fill="white"/>
<path d="M132.407 286.641C131.679 285.198 130.798 283.838 129.78 282.585C129.509 282.216 129.173 281.901 128.787 281.655C128.596 281.531 128.377 281.456 128.15 281.435C127.923 281.414 127.694 281.449 127.483 281.536C127.273 281.652 127.095 281.818 126.964 282.02C126.834 282.221 126.755 282.452 126.734 282.691C126.664 283.158 126.773 283.636 127.04 284.026C128.131 285.754 129.565 287.241 131.252 288.394C131.466 288.574 131.734 288.678 132.013 288.687C132.219 288.651 132.405 288.543 132.54 288.384C132.674 288.224 132.749 288.022 132.75 287.814C132.734 287.4 132.616 286.997 132.407 286.641Z" fill="white"/>
<path d="M109.412 271.665C108.687 270.221 107.806 268.861 106.785 267.609C106.514 267.243 106.18 266.929 105.799 266.679C105.607 266.541 105.38 266.459 105.144 266.44C104.907 266.422 104.671 266.469 104.459 266.576C104.248 266.682 104.07 266.845 103.944 267.046C103.818 267.246 103.75 267.478 103.746 267.715C103.672 268.184 103.779 268.663 104.046 269.056C105.138 270.783 106.572 272.269 108.258 273.424C108.471 273.605 108.74 273.708 109.019 273.718C109.225 273.681 109.411 273.574 109.545 273.414C109.68 273.254 109.754 273.053 109.755 272.844C109.745 272.428 109.627 272.021 109.412 271.665Z" fill="white"/>
<path d="M193.49 294.335C193.403 294.335 193.091 287.471 192.797 279.04C192.504 270.61 192.335 263.74 192.423 263.74C192.51 263.74 192.828 270.604 193.122 279.028C193.415 287.452 193.583 294.328 193.49 294.335Z" fill="#263238"/>
<path d="M77.507 294.946C77.4197 294.946 76.7707 289.786 76.0656 283.396C75.3605 277.006 74.8176 271.821 74.9424 271.808C75.0672 271.796 75.6787 276.969 76.3838 283.358C77.0889 289.748 77.6006 294.934 77.507 294.946Z" fill="#263238"/>
<path d="M201.209 242.436C201.24 242.493 200.404 242.867 199.206 243.684C198.505 244.17 197.843 244.711 197.228 245.301C195.718 246.752 194.502 248.481 193.646 250.392C193.3 251.172 193.014 251.978 192.791 252.801C192.417 254.211 192.348 255.122 192.286 255.116C192.256 254.909 192.256 254.699 192.286 254.492C192.298 254.241 192.327 253.991 192.373 253.743C192.423 253.456 192.46 253.119 192.554 252.764C192.748 251.909 193.019 251.073 193.365 250.268C194.202 248.302 195.444 246.535 197.009 245.082C197.645 244.49 198.332 243.955 199.062 243.485C199.341 243.302 199.628 243.133 199.923 242.979C200.14 242.852 200.365 242.742 200.597 242.649C200.792 242.553 200.997 242.482 201.209 242.436Z" fill="#263238"/>
<path d="M138.484 241.432C137.927 239.226 137.927 236.917 138.484 234.711C138.578 234.711 138.391 236.221 138.397 238.075C138.403 239.928 138.578 241.419 138.484 241.432Z" fill="#263238"/>
<path d="M147.445 239.691C147.083 238.823 146.821 237.916 146.665 236.989C146.405 236.086 146.25 235.157 146.203 234.218C146.568 235.086 146.829 235.992 146.983 236.92C147.243 237.823 147.398 238.753 147.445 239.691Z" fill="#263238"/>
<path d="M157.404 233.22C157.31 233.251 156.936 232.209 156.25 231.048C155.563 229.888 154.846 229.058 154.914 228.989C156.216 230.064 157.099 231.561 157.41 233.22H157.404Z" fill="#263238"/>
<path d="M163.089 228.503C162.604 227.505 162.062 226.536 161.466 225.601C160.777 224.725 160.035 223.891 159.245 223.105C160.221 223.687 161.067 224.465 161.728 225.389C162.39 226.314 162.853 227.365 163.089 228.478V228.503Z" fill="#263238"/>
<path d="M125.305 238.948C125.383 237.911 125.713 236.909 126.266 236.028C126.72 235.093 127.4 234.287 128.244 233.682C128.313 233.75 127.352 234.73 126.547 236.178C125.742 237.625 125.424 238.992 125.305 238.948Z" fill="#263238"/>
<path d="M116.576 234.955C117.207 234.211 117.918 233.539 118.697 232.952C119.417 232.28 120.208 231.69 121.056 231.192C119.718 232.605 118.223 233.861 116.601 234.936L116.576 234.955Z" fill="#263238"/>
<path d="M92.0649 231.573C92.458 236.352 89.7561 240.827 86.711 244.539C83.6659 248.252 80.134 251.709 78.3057 256.146C76.702 260.052 76.571 264.42 77.0078 268.626C77.5195 273.48 78.8236 278.385 81.7564 282.291C83.1916 284.207 85.126 285.911 87.4785 286.372C90.9979 287.052 94.5921 284.663 96.2145 281.461C97.8369 278.26 97.7995 274.473 97.1942 270.941C96.8385 268.844 96.2832 266.754 96.3955 264.638C96.5078 262.523 97.4188 260.27 99.2908 259.278C100.626 258.561 102.23 258.567 103.659 258.118C106.954 257.1 109.044 253.924 110.554 250.829C114.678 242.361 116.527 232.966 115.92 223.567C115.943 222.979 115.757 222.402 115.396 221.938C114.866 221.401 113.999 221.451 113.256 221.545C107.196 222.301 101.208 223.553 95.3534 225.289" fill="#263238"/>
<path d="M140.706 201.508C145.885 196.729 144.069 195.169 143.327 194.17C142.503 193.066 139.888 193.821 139.888 193.821C139.888 193.821 140.893 192.454 141.76 191.113C142.628 189.771 143.108 187.437 140.937 185.684C138.765 183.93 135.058 188.136 135.464 187.381C135.87 186.626 137.717 183.918 135.583 181.291C133.449 178.664 129.168 183.818 125.493 184.704C122.997 185.328 113.013 185.802 105.724 185.328C101.169 185.047 99.4219 183.263 98.2363 179.413L101.294 173.391C102.885 168.399 98.3923 168.299 98.2363 168.443L90.9854 173.353C90.5729 173.633 90.2222 173.995 89.9549 174.415C89.6877 174.836 89.5096 175.307 89.4316 175.8C89.0385 178.296 88.3334 182.545 89.8934 189.646L36.6787 189.971C32.5007 189.995 28.5022 191.672 25.556 194.634C22.6099 197.597 20.9554 201.605 20.9539 205.783C20.9544 206.329 20.9898 206.875 21.0599 207.418C20.9227 213.327 24.7727 218.918 29.8396 222.057C35.1249 225.333 41.5147 226.331 47.7359 226.543C61.1841 226.995 74.5565 224.354 86.8233 218.824L101.263 218.687L123.839 217.57C130.003 216.372 135.597 213.169 139.751 208.46C140.327 207.82 140.849 207.133 141.311 206.407C143.364 203.012 140.706 201.508 140.706 201.508Z" fill="#22634A"/>
<g opacity="0.3">
<path d="M135.439 187.381C135.256 187.631 135.047 187.861 134.815 188.067C134.578 188.333 134.326 188.585 134.06 188.822C133.742 189.091 133.436 189.446 132.981 189.74C132.534 190.097 132.067 190.428 131.583 190.732C131.031 191.089 130.46 191.416 129.873 191.712C128.519 192.379 127.099 192.902 125.636 193.272C122.98 193.896 120.244 194.106 117.524 193.896C116.482 193.814 115.652 193.715 115.066 193.615C114.77 193.584 114.477 193.525 114.192 193.44C114.497 193.434 114.802 193.455 115.103 193.502C115.677 193.565 116.52 193.627 117.555 193.677C120.259 193.817 122.969 193.573 125.605 192.953C127.045 192.589 128.446 192.084 129.786 191.443C130.367 191.159 130.934 190.844 131.483 190.501C131.968 190.213 132.437 189.899 132.887 189.559C134.534 188.311 135.408 187.331 135.439 187.381Z" fill="black"/>
</g>
<g opacity="0.3">
<path d="M139.739 193.69C139.492 193.967 139.227 194.228 138.946 194.47C138.632 194.772 138.301 195.055 137.954 195.318C137.512 195.691 137.052 196.041 136.575 196.367L135.745 196.941C135.458 197.134 135.121 197.315 134.815 197.515C134.191 197.92 133.455 198.282 132.706 198.675C131.048 199.481 129.329 200.155 127.564 200.691C125.796 201.206 123.992 201.588 122.167 201.833C121.324 201.926 120.526 202.032 119.771 202.057C119.015 202.082 118.317 202.126 117.674 202.132C117.031 202.139 116.426 202.132 115.945 202.089C115.465 202.045 114.997 202.032 114.641 201.995C114.27 201.975 113.9 201.925 113.537 201.845C113.907 201.821 114.278 201.821 114.647 201.845C115.009 201.845 115.44 201.889 115.952 201.889C116.463 201.889 117.031 201.889 117.668 201.889C118.304 201.889 119.003 201.851 119.752 201.777C120.501 201.702 121.293 201.627 122.129 201.527C123.936 201.262 125.723 200.875 127.477 200.366C129.223 199.837 130.927 199.178 132.575 198.395C133.318 198.008 134.041 197.664 134.678 197.271C135.002 197.078 135.302 196.903 135.614 196.716L136.444 196.167C136.987 195.83 137.436 195.468 137.842 195.168C138.247 194.869 138.59 194.594 138.859 194.364C139.131 194.113 139.425 193.887 139.739 193.69Z" fill="black"/>
</g>
<g opacity="0.3">
<path d="M140.706 201.508C140.452 201.738 140.181 201.946 139.895 202.132C139.358 202.532 138.559 203.075 137.555 203.717C134.914 205.388 132.102 206.773 129.168 207.848C127.551 208.424 125.895 208.885 124.213 209.227C122.836 209.499 121.441 209.67 120.039 209.739C119.415 209.783 118.903 209.77 118.423 209.739C118.006 209.743 117.589 209.725 117.175 209.683C116.829 209.672 116.484 209.632 116.145 209.564C116.49 209.533 116.836 209.533 117.181 209.564C117.518 209.564 117.924 209.564 118.392 209.564C118.86 209.564 119.402 209.564 119.995 209.489C121.381 209.391 122.759 209.199 124.12 208.915C125.784 208.56 127.422 208.095 129.025 207.524C131.934 206.46 134.734 205.119 137.386 203.518C138.409 202.894 139.221 202.394 139.776 202.026C140.072 201.829 140.383 201.656 140.706 201.508Z" fill="black"/>
</g>
<g opacity="0.3">
<path d="M88.945 184.08C88.9782 184.201 89.0053 184.324 89.0261 184.448C89.076 184.716 89.1446 185.072 89.2258 185.534C89.4005 186.514 89.6438 187.911 89.9558 189.696V189.79H89.856C83.2354 189.958 71.0736 190.22 57.1958 190.482L40.6723 190.775C37.7421 190.475 34.7815 190.712 31.9363 191.474C29.7174 192.057 27.6464 193.101 25.8586 194.538C24.7145 195.487 23.7287 196.612 22.9382 197.87C22.6512 198.307 22.4765 198.663 22.3454 198.894L22.1957 199.162C22.1798 199.191 22.161 199.218 22.1395 199.243C22.1395 199.243 22.1395 199.243 22.177 199.15L22.3018 198.875C22.4585 198.509 22.6378 198.152 22.8384 197.808C23.6029 196.514 24.5796 195.358 25.7275 194.388C27.5103 192.912 29.5893 191.835 31.824 191.231C34.7035 190.435 37.7053 190.177 40.6786 190.47L57.2021 190.145C71.0798 189.883 83.2416 189.683 89.8685 189.609L89.7874 189.702C89.5066 187.911 89.2882 186.507 89.1634 185.528L89.0074 184.436C88.9752 184.319 88.9542 184.2 88.945 184.08Z" fill="black"/>
</g>
<g opacity="0.3">
<path d="M85.488 219.317C85.4426 219.347 85.3945 219.372 85.3445 219.392L84.9264 219.604C84.5458 219.773 84.0029 220.047 83.2791 220.353C81.8376 220.977 79.716 221.832 77.039 222.724C70.0759 225.035 62.8531 226.472 55.536 227.005C51.5041 227.306 47.4527 227.222 43.4366 226.755C40.1486 226.391 36.9235 225.591 33.8458 224.378C31.7662 223.56 29.8222 222.433 28.08 221.033C27.7805 220.777 27.4997 220.565 27.2813 220.353L26.7446 219.81L26.4139 219.467C26.3761 219.432 26.3426 219.392 26.3141 219.348C26.3141 219.348 26.3578 219.348 26.4389 219.448L26.7883 219.76L27.3499 220.284C27.5683 220.484 27.8554 220.69 28.1611 220.908C29.9153 222.258 31.8552 223.346 33.9206 224.141C36.9861 225.315 40.1912 226.084 43.4554 226.431C47.4541 226.88 51.4859 226.955 55.4986 226.656C62.7965 226.123 70.0048 224.722 76.9704 222.481C79.6411 221.62 81.769 220.809 83.2104 220.216C83.9405 219.929 84.4959 219.673 84.8765 219.517L85.3133 219.342C85.3698 219.324 85.4288 219.316 85.488 219.317Z" fill="black"/>
</g>
<path d="M294.154 294.335C294.154 294.422 232.297 294.497 156.006 294.497C79.716 294.497 17.8464 294.422 17.8464 294.335C17.8464 294.247 79.6911 294.172 156.006 294.172C232.321 294.172 294.154 294.247 294.154 294.335Z" fill="#263238"/>
<defs>
<linearGradient id="paint0_linear_61_1877" x1="156.5" y1="0" x2="156.5" y2="297" gradientUnits="userSpaceOnUse">
<stop stop-color="#DAD3C8"/>
<stop offset="1" stop-color="white" stop-opacity="0"/>
</linearGradient>
</defs>
</svg>
